<svg width="32" height="32" viewBox="0 0 32 32" fill="none" xmlns="http://www.w3.org/2000/svg">
<mask id="mask0_2523_18165" style="mask-type:alpha" maskUnits="userSpaceOnUse" x="0" y="0" width="32" height="32">
<rect width="32" height="32" fill="#D9D9D9"/>
</mask>
<g mask="url(#mask0_2523_18165)">
<path d="M6.66634 25.3334C6.28856 25.3334 5.9719 25.2056 5.71634 24.9501C5.46079 24.6945 5.33301 24.3779 5.33301 24.0001C5.33301 23.6223 5.46079 23.3056 5.71634 23.0501C5.9719 22.7945 6.28856 22.6667 6.66634 22.6667H7.99967V13.3334C7.99967 11.489 8.55523 9.85008 9.66634 8.41675C10.7775 6.98341 12.2219 6.04453 13.9997 5.60008V4.66675C13.9997 4.11119 14.1941 3.63897 14.583 3.25008C14.9719 2.86119 15.4441 2.66675 15.9997 2.66675C16.5552 2.66675 17.0275 2.86119 17.4163 3.25008C17.8052 3.63897 17.9997 4.11119 17.9997 4.66675V5.60008C19.7775 6.04453 21.2219 6.98341 22.333 8.41675C23.4441 9.85008 23.9997 11.489 23.9997 13.3334V22.6667H25.333C25.7108 22.6667 26.0275 22.7945 26.283 23.0501C26.5386 23.3056 26.6663 23.6223 26.6663 24.0001C26.6663 24.3779 26.5386 24.6945 26.283 24.9501C26.0275 25.2056 25.7108 25.3334 25.333 25.3334H6.66634ZM15.9997 29.3334C15.2663 29.3334 14.6386 29.0723 14.1163 28.5501C13.5941 28.0279 13.333 27.4001 13.333 26.6667H18.6663C18.6663 27.4001 18.4052 28.0279 17.883 28.5501C17.3608 29.0723 16.733 29.3334 15.9997 29.3334ZM10.6663 22.6667H21.333V13.3334C21.333 11.8667 20.8108 10.6112 19.7663 9.56675C18.7219 8.5223 17.4663 8.00008 15.9997 8.00008C14.533 8.00008 13.2775 8.5223 12.233 9.56675C11.1886 10.6112 10.6663 11.8667 10.6663 13.3334V22.6667Z" fill="white"/>
</g>
</svg>
