<svg width="28" height="28" viewBox="0 0 28 28" fill="none" xmlns="http://www.w3.org/2000/svg">
<mask id="mask0_2572_1704" style="mask-type:alpha" maskUnits="userSpaceOnUse" x="0" y="0" width="28" height="28">
<rect width="28" height="28" fill="#D9D9D9"/>
</mask>
<g mask="url(#mask0_2572_1704)">
<path d="M13.9997 20.4167C15.0302 20.4167 16.0073 20.1931 16.9309 19.7458C17.8545 19.2986 18.5983 18.6472 19.1622 17.7917C19.3761 17.4611 19.4052 17.1354 19.2497 16.8146C19.0941 16.4938 18.8413 16.3333 18.4913 16.3333C18.3358 16.3333 18.1948 16.3674 18.0684 16.4354C17.942 16.5035 17.84 16.6056 17.7622 16.7417C17.315 17.3445 16.7608 17.816 16.0997 18.1563C15.4386 18.4965 14.7386 18.6667 13.9997 18.6667C13.2608 18.6667 12.5608 18.4965 11.8997 18.1563C11.2386 17.816 10.6844 17.3445 10.2372 16.7417C10.14 16.6056 10.0281 16.5035 9.90176 16.4354C9.77537 16.3674 9.6344 16.3333 9.47884 16.3333C9.12884 16.3333 8.87606 16.4889 8.72051 16.8C8.56495 17.1111 8.59412 17.4222 8.80801 17.7333C9.3719 18.6083 10.1156 19.2743 11.0393 19.7313C11.9629 20.1882 12.9497 20.4167 13.9997 20.4167ZM18.083 12.8333C18.5691 12.8333 18.9823 12.6632 19.3226 12.3229C19.6629 11.9826 19.833 11.5695 19.833 11.0833C19.833 10.5972 19.6629 10.184 19.3226 9.84376C18.9823 9.50348 18.5691 9.33334 18.083 9.33334C17.5969 9.33334 17.1837 9.50348 16.8434 9.84376C16.5031 10.184 16.333 10.5972 16.333 11.0833C16.333 11.5695 16.5031 11.9826 16.8434 12.3229C17.1837 12.6632 17.5969 12.8333 18.083 12.8333ZM9.91634 12.8333C10.4025 12.8333 10.8156 12.6632 11.1559 12.3229C11.4962 11.9826 11.6663 11.5695 11.6663 11.0833C11.6663 10.5972 11.4962 10.184 11.1559 9.84376C10.8156 9.50348 10.4025 9.33334 9.91634 9.33334C9.43023 9.33334 9.01704 9.50348 8.67676 9.84376C8.33648 10.184 8.16634 10.5972 8.16634 11.0833C8.16634 11.5695 8.33648 11.9826 8.67676 12.3229C9.01704 12.6632 9.43023 12.8333 9.91634 12.8333ZM13.9997 25.6667C12.3858 25.6667 10.8691 25.3604 9.44967 24.7479C8.03023 24.1354 6.79551 23.3042 5.74551 22.2542C4.69551 21.2042 3.86426 19.9695 3.25176 18.55C2.63926 17.1306 2.33301 15.6139 2.33301 14C2.33301 12.3861 2.63926 10.8695 3.25176 9.45001C3.86426 8.03057 4.69551 6.79584 5.74551 5.74584C6.79551 4.69584 8.03023 3.86459 9.44967 3.25209C10.8691 2.63959 12.3858 2.33334 13.9997 2.33334C15.6136 2.33334 17.1302 2.63959 18.5497 3.25209C19.9691 3.86459 21.2038 4.69584 22.2538 5.74584C23.3038 6.79584 24.1351 8.03057 24.7476 9.45001C25.3601 10.8695 25.6663 12.3861 25.6663 14C25.6663 15.6139 25.3601 17.1306 24.7476 18.55C24.1351 19.9695 23.3038 21.2042 22.2538 22.2542C21.2038 23.3042 19.9691 24.1354 18.5497 24.7479C17.1302 25.3604 15.6136 25.6667 13.9997 25.6667ZM13.9997 23.3333C16.6052 23.3333 18.8122 22.4292 20.6205 20.6208C22.4288 18.8125 23.333 16.6056 23.333 14C23.333 11.3945 22.4288 9.18751 20.6205 7.37918C18.8122 5.57084 16.6052 4.66668 13.9997 4.66668C11.3941 4.66668 9.18717 5.57084 7.37884 7.37918C5.57051 9.18751 4.66634 11.3945 4.66634 14C4.66634 16.6056 5.57051 18.8125 7.37884 20.6208C9.18717 22.4292 11.3941 23.3333 13.9997 23.3333Z" fill="white"/>
</g>
</svg>
