<?xml version="1.0" encoding="UTF-8"?>
<!DOCTYPE svg PUBLIC "-//W3C//DTD SVG 1.1//EN" "http://www.w3.org/Graphics/SVG/1.1/DTD/svg11.dtd">
<svg xmlns="http://www.w3.org/2000/svg" version="1.1" width="666px" height="375px" style="shape-rendering:geometricPrecision; text-rendering:geometricPrecision; image-rendering:optimizeQuality; fill-rule:evenodd; clip-rule:evenodd" xmlns:xlink="http://www.w3.org/1999/xlink">
<g><path style="opacity:1" fill="#c4b3d2" d="M 328.5,2.5 C 330.658,4.22001 333.325,5.05334 336.5,5C 337.942,5.37675 338.942,6.21009 339.5,7.5C 336.985,11.0383 334.651,14.705 332.5,18.5C 330.078,14.6562 327.411,10.9895 324.5,7.5C 322.815,8.95265 321.149,10.286 319.5,11.5C 321.173,7.82707 323.84,5.16041 327.5,3.5C 327.5,2.83333 327.833,2.5 328.5,2.5 Z"/></g>
<g><path style="opacity:0.6" fill="#b591d3" d="M 327.5,3.5 C 323.84,5.16041 321.173,7.82707 319.5,11.5C 313.652,12.7598 308.318,15.0931 303.5,18.5C 306.228,12.6326 310.895,10.1326 317.5,11C 318.451,5.39526 321.784,2.89526 327.5,3.5 Z"/></g>
<g><path style="opacity:1" fill="#b095c4" d="M 328.5,2.5 C 334.123,2.04944 339.456,3.04944 344.5,5.5C 345.406,7.38642 346.406,9.21975 347.5,11C 350.956,11.1802 354.289,11.8468 357.5,13C 362.271,18.3748 365.605,24.5415 367.5,31.5C 366.417,31.4606 365.417,31.1272 364.5,30.5C 363.959,27.2665 362.626,24.4331 360.5,22C 356.858,21.2716 354.025,19.4382 352,16.5C 350.301,17.4061 348.467,17.7394 346.5,17.5C 346.5,16.5 346.5,15.5 346.5,14.5C 345.5,14.5 344.5,14.5 343.5,14.5C 343.799,12.396 343.466,10.396 342.5,8.5C 341.583,7.87277 340.583,7.53944 339.5,7.5C 338.942,6.21009 337.942,5.37675 336.5,5C 333.325,5.05334 330.658,4.22001 328.5,2.5 Z"/></g>
<g><path style="opacity:1" fill="#aa92bc" d="M 319.5,11.5 C 319.489,13.0174 318.823,14.1841 317.5,15C 317.957,15.414 318.291,15.914 318.5,16.5C 317.032,24.202 315.199,24.202 313,16.5C 312.51,17.7932 312.343,19.1266 312.5,20.5C 309.6,20.2796 306.933,20.9462 304.5,22.5C 302.744,26.3492 300.744,30.0159 298.5,33.5C 297.662,33.1583 297.328,32.4916 297.5,31.5C 298.353,26.5959 300.353,22.2625 303.5,18.5C 308.318,15.0931 313.652,12.7598 319.5,11.5 Z"/></g>
<g><path style="opacity:1" fill="#9b8aa3" d="M 339.5,7.5 C 340.583,7.53944 341.583,7.87277 342.5,8.5C 343.466,10.396 343.799,12.396 343.5,14.5C 344.5,14.5 345.5,14.5 346.5,14.5C 346.5,15.5 346.5,16.5 346.5,17.5C 348.467,17.7394 350.301,17.4061 352,16.5C 354.025,19.4382 356.858,21.2716 360.5,22C 362.626,24.4331 363.959,27.2665 364.5,30.5C 365.417,31.1272 366.417,31.4606 367.5,31.5C 368.167,31.5 368.5,31.8333 368.5,32.5C 367.85,32.8039 367.183,33.1373 366.5,33.5C 363.643,32.0366 360.643,31.0366 357.5,30.5C 355.119,28.3673 352.452,27.7006 349.5,28.5C 349.573,26.9731 348.906,25.9731 347.5,25.5C 345.988,23.0657 343.988,22.3991 341.5,23.5C 341.03,22.3065 340.03,21.6399 338.5,21.5C 332.913,19.9416 327.579,20.2749 322.5,22.5C 320.326,22.7497 318.659,23.7497 317.5,25.5C 316.094,25.9731 315.427,26.9731 315.5,28.5C 314.778,28.0825 314.278,27.4158 314,26.5C 312.247,27.627 310.413,28.627 308.5,29.5C 307.374,30.8084 307.374,32.1417 308.5,33.5C 306.082,37.2451 302.749,39.9118 298.5,41.5C 298.5,38.8333 298.5,36.1667 298.5,33.5C 300.744,30.0159 302.744,26.3492 304.5,22.5C 306.933,20.9462 309.6,20.2796 312.5,20.5C 312.343,19.1266 312.51,17.7932 313,16.5C 315.199,24.202 317.032,24.202 318.5,16.5C 318.291,15.914 317.957,15.414 317.5,15C 318.823,14.1841 319.489,13.0174 319.5,11.5C 321.149,10.286 322.815,8.95265 324.5,7.5C 327.411,10.9895 330.078,14.6562 332.5,18.5C 334.651,14.705 336.985,11.0383 339.5,7.5 Z"/></g>
<g><path style="opacity:1" fill="#bb9d85" d="M 341.5,23.5 C 340.022,24.4475 339.022,25.7809 338.5,27.5C 334.468,19.7077 330.468,19.7077 326.5,27.5C 325.889,25.2889 324.556,23.6223 322.5,22.5C 327.579,20.2749 332.913,19.9416 338.5,21.5C 340.03,21.6399 341.03,22.3065 341.5,23.5 Z"/></g>
<g><path style="opacity:1" fill="#eeceb0" d="M 338.5,27.5 C 334.5,27.5 330.5,27.5 326.5,27.5C 330.468,19.7077 334.468,19.7077 338.5,27.5 Z"/></g>
<g><path style="opacity:1" fill="#654d36" d="M 322.5,22.5 C 324.556,23.6223 325.889,25.2889 326.5,27.5C 330.5,27.5 334.5,27.5 338.5,27.5C 339.022,25.7809 340.022,24.4475 341.5,23.5C 343.988,22.3991 345.988,23.0657 347.5,25.5C 345.011,31.067 340.678,32.9003 334.5,31C 331.266,30.8003 328.266,29.9669 325.5,28.5C 323.547,29.1556 321.547,29.4889 319.5,29.5C 319.843,27.5168 319.176,26.1834 317.5,25.5C 318.659,23.7497 320.326,22.7497 322.5,22.5 Z"/></g>
<g><path style="opacity:1" fill="#c8b6d1" d="M 315.5,28.5 C 316.833,31.8333 318.167,35.1667 319.5,38.5C 318.876,38.9169 318.543,39.5836 318.5,40.5C 319.351,42.8535 319.851,45.1868 320,47.5C 315.918,43.9244 312.418,39.9244 309.5,35.5C 309.167,34.8333 308.833,34.1667 308.5,33.5C 307.374,32.1417 307.374,30.8084 308.5,29.5C 310.413,28.627 312.247,27.627 314,26.5C 314.278,27.4158 314.778,28.0825 315.5,28.5 Z"/></g>
<g><path style="opacity:1" fill="#382d2d" d="M 317.5,25.5 C 319.176,26.1834 319.843,27.5168 319.5,29.5C 321.547,29.4889 323.547,29.1556 325.5,28.5C 328.266,29.9669 331.266,30.8003 334.5,31C 340.678,32.9003 345.011,31.067 347.5,25.5C 348.906,25.9731 349.573,26.9731 349.5,28.5C 348.424,31.6484 347.091,34.6484 345.5,37.5C 343.315,37.7036 341.315,38.3702 339.5,39.5C 333.412,38.1312 327.412,38.4645 321.5,40.5C 320.833,39.8333 320.167,39.1667 319.5,38.5C 318.167,35.1667 316.833,31.8333 315.5,28.5C 315.427,26.9731 316.094,25.9731 317.5,25.5 Z"/></g>
<g><path style="opacity:1" fill="#cab7d1" d="M 357.5,30.5 C 357.443,31.609 357.11,32.609 356.5,33.5C 353.392,38.6876 349.559,43.3543 345,47.5C 345.282,45.3841 345.782,43.2175 346.5,41C 346.352,39.7441 346.018,38.5774 345.5,37.5C 347.091,34.6484 348.424,31.6484 349.5,28.5C 352.452,27.7006 355.119,28.3673 357.5,30.5 Z"/></g>
<g><path style="opacity:1" fill="#4b3d57" d="M 356.5,33.5 C 359.342,36.9415 362.675,39.9415 366.5,42.5C 367.386,43.325 367.719,44.325 367.5,45.5C 367.167,46.5 366.5,47.1667 365.5,47.5C 363.122,49.552 360.789,51.552 358.5,53.5C 357.292,52.7659 355.959,52.4326 354.5,52.5C 352.229,50.7341 350.063,48.7341 348,46.5C 347.148,47.5707 346.315,48.5707 345.5,49.5C 345.158,48.6618 344.492,48.3284 343.5,48.5C 341.58,46.9508 340.58,45.2841 340.5,43.5C 340.5,43.1667 340.5,42.8333 340.5,42.5C 341.675,42.719 342.675,42.3857 343.5,41.5C 342.051,40.8281 340.718,40.1614 339.5,39.5C 341.315,38.3702 343.315,37.7036 345.5,37.5C 346.018,38.5774 346.352,39.7441 346.5,41C 345.782,43.2175 345.282,45.3841 345,47.5C 349.559,43.3543 353.392,38.6876 356.5,33.5 Z"/></g>
<g><path style="opacity:0.997" fill="#7c6689" d="M 357.5,30.5 C 360.643,31.0366 363.643,32.0366 366.5,33.5C 367.183,33.1373 367.85,32.8039 368.5,32.5C 369.606,37.0234 369.273,41.3567 367.5,45.5C 367.719,44.325 367.386,43.325 366.5,42.5C 362.675,39.9415 359.342,36.9415 356.5,33.5C 357.11,32.609 357.443,31.609 357.5,30.5 Z"/></g>
<g><path style="opacity:0.265" fill="#8d5f9f" d="M 297.5,31.5 C 297.328,32.4916 297.662,33.1583 298.5,33.5C 298.5,36.1667 298.5,38.8333 298.5,41.5C 297.766,42.7079 297.433,44.0413 297.5,45.5C 295.561,41.4689 295.061,37.1355 296,32.5C 296.383,31.944 296.883,31.6107 297.5,31.5 Z"/></g>
<g><path style="opacity:1" fill="#cdbed5" d="M 339.5,39.5 C 340.718,40.1614 342.051,40.8281 343.5,41.5C 342.675,42.3857 341.675,42.719 340.5,42.5C 337.951,42.6126 335.618,41.9459 333.5,40.5C 330.724,42.1298 327.724,42.7965 324.5,42.5C 322.821,42.7148 321.821,42.0481 321.5,40.5C 327.412,38.4645 333.412,38.1312 339.5,39.5 Z"/></g>
<g><path style="opacity:1" fill="#4c4056" d="M 308.5,33.5 C 308.833,34.1667 309.167,34.8333 309.5,35.5C 308.957,35.56 308.624,35.8933 308.5,36.5C 309.206,40.0039 310.539,43.1706 312.5,46C 312.137,48.1923 311.137,50.0256 309.5,51.5C 308.063,52.7255 306.396,53.7255 304.5,54.5C 303.554,50.5579 301.221,47.8912 297.5,46.5C 297.5,46.1667 297.5,45.8333 297.5,45.5C 297.433,44.0413 297.766,42.7079 298.5,41.5C 302.749,39.9118 306.082,37.2451 308.5,33.5 Z"/></g>
<g><path style="opacity:1" fill="#ab91b8" d="M 340.5,42.5 C 340.5,42.8333 340.5,43.1667 340.5,43.5C 339.504,43.4142 338.671,43.7476 338,44.5C 336.414,47.3405 334.58,50.0072 332.5,52.5C 330.129,48.8101 327.462,45.4767 324.5,42.5C 327.724,42.7965 330.724,42.1298 333.5,40.5C 335.618,41.9459 337.951,42.6126 340.5,42.5 Z"/></g>
<g><path style="opacity:1" fill="#4e365b" d="M 309.5,35.5 C 312.418,39.9244 315.918,43.9244 320,47.5C 319.851,45.1868 319.351,42.8535 318.5,40.5C 318.543,39.5836 318.876,38.9169 319.5,38.5C 320.167,39.1667 320.833,39.8333 321.5,40.5C 321.821,42.0481 322.821,42.7148 324.5,42.5C 327.462,45.4767 330.129,48.8101 332.5,52.5C 334.58,50.0072 336.414,47.3405 338,44.5C 338.671,43.7476 339.504,43.4142 340.5,43.5C 340.58,45.2841 341.58,46.9508 343.5,48.5C 341.696,52.109 339.862,55.7757 338,59.5C 337.667,58.5 337.333,57.5 337,56.5C 335.897,60.2281 333.897,63.2281 331,65.5C 330.75,62.2464 329.75,59.2464 328,56.5C 328,58.5 328,60.5 328,62.5C 325.863,57.9162 324.029,53.2495 322.5,48.5C 321.209,48.2627 320.209,48.596 319.5,49.5C 318.685,48.5707 317.852,47.5707 317,46.5C 314.878,48.7564 312.378,50.423 309.5,51.5C 311.137,50.0256 312.137,48.1923 312.5,46C 310.539,43.1706 309.206,40.0039 308.5,36.5C 308.624,35.8933 308.957,35.56 309.5,35.5 Z"/></g>
<g><path style="opacity:1" fill="#907ccd" d="M 354.5,52.5 C 351.545,51.8413 348.545,51.5079 345.5,51.5C 345.5,51.1667 345.5,50.8333 345.5,50.5C 345.5,50.1667 345.5,49.8333 345.5,49.5C 346.315,48.5707 347.148,47.5707 348,46.5C 350.063,48.7341 352.229,50.7341 354.5,52.5 Z"/></g>
<g><path style="opacity:1" fill="#8368ca" d="M 297.5,46.5 C 301.221,47.8912 303.554,50.5579 304.5,54.5C 306.396,53.7255 308.063,52.7255 309.5,51.5C 312.378,50.423 314.878,48.7564 317,46.5C 317.852,47.5707 318.685,48.5707 319.5,49.5C 319.5,49.8333 319.5,50.1667 319.5,50.5C 319.586,53.9578 317.919,55.9578 314.5,56.5C 313.849,55.9094 313.182,55.2427 312.5,54.5C 308.675,55.4937 305.175,57.1603 302,59.5C 300.97,59.1639 300.47,58.4972 300.5,57.5C 301.39,55.2181 301.556,52.8848 301,50.5C 299.624,49.2949 298.458,47.9616 297.5,46.5 Z"/></g>
<g><path style="opacity:0.596" fill="#7d589d" d="M 365.5,47.5 C 365.141,49.371 364.141,50.871 362.5,52C 363.267,53.4705 363.933,54.9705 364.5,56.5C 361.687,56.9754 359.687,55.9754 358.5,53.5C 360.789,51.552 363.122,49.552 365.5,47.5 Z"/></g>
<g><path style="opacity:1" fill="#8146bf" d="M 314.5,56.5 C 314.811,60.1702 316.478,63.1702 319.5,65.5C 321.333,70.5614 323.166,75.5614 325,80.5C 325.681,84.676 325.181,88.676 323.5,92.5C 322.566,91.4324 322.232,90.099 322.5,88.5C 322.665,85.4816 322.498,82.4816 322,79.5C 321.583,78.244 320.75,77.5774 319.5,77.5C 319.665,74.4816 319.498,71.4816 319,68.5C 316.836,66.5203 315.336,64.187 314.5,61.5C 310.788,61.877 307.788,63.5437 305.5,66.5C 304.833,66.5 304.167,66.5 303.5,66.5C 302.432,65.5655 301.099,65.2322 299.5,65.5C 299.795,63.2646 299.461,61.2646 298.5,59.5C 298.833,58.5 299.5,57.8333 300.5,57.5C 300.47,58.4972 300.97,59.1639 302,59.5C 305.175,57.1603 308.675,55.4937 312.5,54.5C 313.182,55.2427 313.849,55.9094 314.5,56.5 Z"/></g>
<g><path style="opacity:1" fill="#5a3175" d="M 319.5,50.5 C 320.117,50.6107 320.617,50.944 321,51.5C 321.333,54.1667 321.667,56.8333 322,59.5C 326.748,61.9155 329.582,65.7488 330.5,71C 330.13,74.2873 329.13,77.2873 327.5,80C 328.126,80.7504 328.626,81.5838 329,82.5C 329.7,80.968 330.866,79.968 332.5,79.5C 333.262,74.4068 334.428,69.4068 336,64.5C 337.699,63.5939 339.533,63.2606 341.5,63.5C 341.281,62.325 341.614,61.325 342.5,60.5C 345.804,60.3223 347.471,58.6557 347.5,55.5C 348.478,55.811 349.145,56.4777 349.5,57.5C 347.995,59.5038 346.328,61.3371 344.5,63C 342.551,71.8704 340.551,80.7037 338.5,89.5C 339.5,89.5 340.5,89.5 341.5,89.5C 341.326,91.861 340.993,94.1944 340.5,96.5C 341.237,98.3046 342.237,99.9713 343.5,101.5C 344.736,100.754 346.07,100.421 347.5,100.5C 347.5,101.5 347.5,102.5 347.5,103.5C 345.437,102.289 344.437,103.123 344.5,106C 344.872,108.743 345.539,111.41 346.5,114C 346.613,115.699 345.947,116.866 344.5,117.5C 343.227,113.989 342.227,110.322 341.5,106.5C 340.817,106.137 340.15,105.804 339.5,105.5C 336.842,103.516 333.842,102.182 330.5,101.5C 329.167,101.667 327.833,101.833 326.5,102C 327.566,103.159 327.233,103.992 325.5,104.5C 324.055,106.063 322.389,107.396 320.5,108.5C 320.663,106.143 320.497,103.81 320,101.5C 319.292,102.381 318.458,103.047 317.5,103.5C 317.167,103.5 316.833,103.5 316.5,103.5C 316.33,102.178 316.663,101.011 317.5,100C 319.994,98.9683 322.328,97.8017 324.5,96.5C 324.167,95.1667 323.833,93.8333 323.5,92.5C 325.181,88.676 325.681,84.676 325,80.5C 323.166,75.5614 321.333,70.5614 319.5,65.5C 316.478,63.1702 314.811,60.1702 314.5,56.5C 317.919,55.9578 319.586,53.9578 319.5,50.5 Z"/></g>
<g><path style="opacity:1" fill="#4c2c5c" d="M 343.5,48.5 C 344.492,48.3284 345.158,48.6618 345.5,49.5C 345.5,49.8333 345.5,50.1667 345.5,50.5C 342.926,53.0175 343.592,54.6842 347.5,55.5C 347.471,58.6557 345.804,60.3223 342.5,60.5C 341.614,61.325 341.281,62.325 341.5,63.5C 339.533,63.2606 337.699,63.5939 336,64.5C 334.428,69.4068 333.262,74.4068 332.5,79.5C 330.866,79.968 329.7,80.968 329,82.5C 328.626,81.5838 328.126,80.7504 327.5,80C 329.13,77.2873 330.13,74.2873 330.5,71C 329.582,65.7488 326.748,61.9155 322,59.5C 321.667,56.8333 321.333,54.1667 321,51.5C 320.617,50.944 320.117,50.6107 319.5,50.5C 319.5,50.1667 319.5,49.8333 319.5,49.5C 320.209,48.596 321.209,48.2627 322.5,48.5C 324.029,53.2495 325.863,57.9162 328,62.5C 328,60.5 328,58.5 328,56.5C 329.75,59.2464 330.75,62.2464 331,65.5C 333.897,63.2281 335.897,60.2281 337,56.5C 337.333,57.5 337.667,58.5 338,59.5C 339.862,55.7757 341.696,52.109 343.5,48.5 Z"/></g>
<g><path style="opacity:1" fill="#7e5ac5" d="M 345.5,51.5 C 348.545,51.5079 351.545,51.8413 354.5,52.5C 355.959,52.4326 357.292,52.7659 358.5,53.5C 359.687,55.9754 361.687,56.9754 364.5,56.5C 368.167,60.5 371.833,64.5 375.5,68.5C 375.5,68.8333 375.5,69.1667 375.5,69.5C 370.5,73.1667 366.167,77.5 362.5,82.5C 362.167,82.5 361.833,82.5 361.5,82.5C 364.5,77.8347 365.167,72.8347 363.5,67.5C 363.158,66.6618 362.492,66.3284 361.5,66.5C 361.918,65.7784 362.584,65.2784 363.5,65C 358.948,61.8975 354.614,58.5642 350.5,55C 349.167,54.6667 347.833,54.3333 346.5,54C 345.748,53.3292 345.414,52.4959 345.5,51.5 Z"/></g>
<g><path style="opacity:1" fill="#815abf" d="M 298.5,59.5 C 299.461,61.2646 299.795,63.2646 299.5,65.5C 301.099,65.2322 302.432,65.5655 303.5,66.5C 302.508,66.3284 301.842,66.6618 301.5,67.5C 299.873,72.4806 300.539,77.1472 303.5,81.5C 303.376,82.1067 303.043,82.44 302.5,82.5C 298.5,77.8333 294.167,73.5 289.5,69.5C 289.5,69.1667 289.5,68.8333 289.5,68.5C 291.824,64.8764 294.824,61.8764 298.5,59.5 Z"/></g>
<g><path style="opacity:1" fill="#b653ea" d="M 361.5,66.5 C 362.492,66.3284 363.158,66.6618 363.5,67.5C 361.937,70.9154 360.437,74.5821 359,78.5C 357.629,80.0414 356.129,81.3747 354.5,82.5C 350.833,81.1667 347.167,79.8333 343.5,78.5C 343.292,73.3638 343.959,68.3638 345.5,63.5C 348.617,63.8723 351.617,63.8723 354.5,63.5C 356.071,66.0934 358.404,67.0934 361.5,66.5 Z"/></g>
<g><path style="opacity:0.988" fill="#a670b7" d="M 404.5,91.5 C 402.265,88.7089 400.265,85.7089 398.5,82.5C 397.457,79.9438 395.79,77.7772 393.5,76C 388.788,74.9719 384.121,74.6386 379.5,75C 380.376,72.6243 382.042,71.1243 384.5,70.5C 384.376,69.8933 384.043,69.56 383.5,69.5C 380.833,69.5 378.167,69.5 375.5,69.5C 375.5,69.1667 375.5,68.8333 375.5,68.5C 379.053,67.0448 382.553,67.3781 386,69.5C 386.483,70.448 386.649,71.448 386.5,72.5C 396.592,74.9262 402.592,81.2595 404.5,91.5 Z"/></g>
<g><path style="opacity:1" fill="#b652eb" d="M 319.5,77.5 C 317.163,79.8293 314.496,81.3293 311.5,82C 308.591,79.8168 306.758,76.9835 306,73.5C 305.503,71.1902 305.337,68.8568 305.5,66.5C 307.788,63.5437 310.788,61.877 314.5,61.5C 315.336,64.187 316.836,66.5203 319,68.5C 319.498,71.4816 319.665,74.4816 319.5,77.5 Z"/></g>
<g><path style="opacity:1" fill="#7d3dac" d="M 345.5,50.5 C 345.5,50.8333 345.5,51.1667 345.5,51.5C 345.414,52.4959 345.748,53.3292 346.5,54C 347.833,54.3333 349.167,54.6667 350.5,55C 354.614,58.5642 358.948,61.8975 363.5,65C 362.584,65.2784 361.918,65.7784 361.5,66.5C 358.404,67.0934 356.071,66.0934 354.5,63.5C 351.617,63.8723 348.617,63.8723 345.5,63.5C 343.959,68.3638 343.292,73.3638 343.5,78.5C 342.577,82.0641 342.244,85.7307 342.5,89.5C 342.167,89.5 341.833,89.5 341.5,89.5C 340.5,89.5 339.5,89.5 338.5,89.5C 340.551,80.7037 342.551,71.8704 344.5,63C 346.328,61.3371 347.995,59.5038 349.5,57.5C 349.145,56.4777 348.478,55.811 347.5,55.5C 343.592,54.6842 342.926,53.0175 345.5,50.5 Z"/></g>
<g><path style="opacity:1" fill="#dcb8e8" d="M 383.5,69.5 C 384.043,69.56 384.376,69.8933 384.5,70.5C 382.042,71.1243 380.376,72.6243 379.5,75C 384.121,74.6386 388.788,74.9719 393.5,76C 395.79,77.7772 397.457,79.9438 398.5,82.5C 396.059,81.4434 393.725,80.11 391.5,78.5C 390.893,78.6236 390.56,78.9569 390.5,79.5C 387.619,79.0948 384.952,78.0948 382.5,76.5C 369.076,82.8269 368.076,80.9936 379.5,71C 381.058,70.79 382.391,70.29 383.5,69.5 Z"/></g>
<g><path style="opacity:0.306" fill="#a16eb3" d="M 289.5,68.5 C 289.5,68.8333 289.5,69.1667 289.5,69.5C 286.482,69.3354 283.482,69.502 280.5,70C 289.051,76.3414 288.384,77.8414 278.5,74.5C 272.829,74.3401 268.829,76.8401 266.5,82C 266.728,82.3988 267.062,82.5654 267.5,82.5C 264.589,85.9895 261.922,89.6562 259.5,93.5C 260.803,86.0078 264.47,79.8411 270.5,75C 274.675,73.4157 278.341,71.0823 281.5,68C 284.261,67.2782 286.927,67.4448 289.5,68.5 Z"/></g>
<g><path style="opacity:1" fill="#dd75f8" d="M 343.5,78.5 C 347.167,79.8333 350.833,81.1667 354.5,82.5C 352.629,85.0608 350.629,87.5608 348.5,90C 346.512,90.1805 344.512,90.0138 342.5,89.5C 342.244,85.7307 342.577,82.0641 343.5,78.5 Z"/></g>
<g><path style="opacity:1" fill="#efd8f5" d="M 375.5,69.5 C 378.167,69.5 380.833,69.5 383.5,69.5C 382.391,70.29 381.058,70.79 379.5,71C 368.076,80.9936 369.076,82.8269 382.5,76.5C 384.952,78.0948 387.619,79.0948 390.5,79.5C 394.13,83.631 397.963,87.631 402,91.5C 403.284,94.5299 404.451,97.5299 405.5,100.5C 402.167,96.5 398.833,92.5 395.5,88.5C 393.254,83.7861 389.42,81.7861 384,82.5C 377.129,83.7354 370.629,86.0687 364.5,89.5C 362.571,89.7692 360.905,89.2692 359.5,88C 360.223,85.9817 361.223,84.1484 362.5,82.5C 366.167,77.5 370.5,73.1667 375.5,69.5 Z"/></g>
<g><path style="opacity:1" fill="#e8caf1" d="M 289.5,69.5 C 294.167,73.5 298.5,77.8333 302.5,82.5C 303.6,83.6049 304.267,84.9382 304.5,86.5C 298.753,84.4652 293.087,82.2985 287.5,80C 283.459,79.1735 279.459,79.3401 275.5,80.5C 277.631,81.1687 279.631,81.8354 281.5,82.5C 279.143,82.3367 276.81,82.5034 274.5,83C 272.249,83.7475 270.916,85.2475 270.5,87.5C 266.596,91.6478 262.929,95.9811 259.5,100.5C 260.092,97.3093 261.259,94.3093 263,91.5C 267.016,87.6516 270.849,83.6516 274.5,79.5C 274.167,79.1667 273.833,78.8333 273.5,78.5C 271.471,79.8435 269.471,81.1769 267.5,82.5C 267.062,82.5654 266.728,82.3988 266.5,82C 268.829,76.8401 272.829,74.3401 278.5,74.5C 288.384,77.8414 289.051,76.3414 280.5,70C 283.482,69.502 286.482,69.3354 289.5,69.5 Z"/></g>
<g><path style="opacity:1" fill="#856298" d="M 259.5,100.5 C 257.276,105.275 255.943,110.275 255.5,115.5C 254.371,113.372 254.204,111.039 255,108.5C 256.41,103.441 257.91,98.4408 259.5,93.5C 261.922,89.6562 264.589,85.9895 267.5,82.5C 269.471,81.1769 271.471,79.8435 273.5,78.5C 273.833,78.8333 274.167,79.1667 274.5,79.5C 270.849,83.6516 267.016,87.6516 263,91.5C 261.259,94.3093 260.092,97.3093 259.5,100.5 Z"/></g>
<g><path style="opacity:1" fill="#f0c6f8" d="M 363.5,67.5 C 365.167,72.8347 364.5,77.8347 361.5,82.5C 358.78,85.0603 356.614,88.0603 355,91.5C 353.414,92.376 351.914,93.376 350.5,94.5C 349.572,92.6652 348.406,92.3318 347,93.5C 345.141,92.4209 343.641,91.0876 342.5,89.5C 344.512,90.0138 346.512,90.1805 348.5,90C 350.629,87.5608 352.629,85.0608 354.5,82.5C 356.129,81.3747 357.629,80.0414 359,78.5C 360.437,74.5821 361.937,70.9154 363.5,67.5 Z"/></g>
<g><path style="opacity:1" fill="#efddf4" d="M 304.5,86.5 C 305.598,87.397 305.598,88.2303 304.5,89C 303.207,89.49 301.873,89.6567 300.5,89.5C 294.484,86.326 288.15,83.9927 281.5,82.5C 279.631,81.8354 277.631,81.1687 275.5,80.5C 279.459,79.3401 283.459,79.1735 287.5,80C 293.087,82.2985 298.753,84.4652 304.5,86.5 Z"/></g>
<g><path style="opacity:1" fill="#d270ef" d="M 301.5,67.5 C 301.842,66.6618 302.508,66.3284 303.5,66.5C 304.167,66.5 304.833,66.5 305.5,66.5C 305.337,68.8568 305.503,71.1902 306,73.5C 306.758,76.9835 308.591,79.8168 311.5,82C 314.496,81.3293 317.163,79.8293 319.5,77.5C 320.75,77.5774 321.583,78.244 322,79.5C 322.498,82.4816 322.665,85.4816 322.5,88.5C 320.519,89.3475 318.519,89.8475 316.5,90C 313.369,85.8672 309.869,82.0338 306,78.5C 304.563,74.5821 303.063,70.9154 301.5,67.5 Z"/></g>
<g><path style="opacity:1" fill="#523863" d="M 281.5,82.5 C 288.15,83.9927 294.484,86.326 300.5,89.5C 301.5,90.1667 302.5,90.8333 303.5,91.5C 298.139,89.9285 292.639,88.9285 287,88.5C 284.967,88.5056 283.134,88.8389 281.5,89.5C 276.717,90.2766 273.383,92.9433 271.5,97.5C 269.823,99.5398 268.156,101.54 266.5,103.5C 265.666,101.737 266.166,100.07 268,98.5C 268.407,94.7148 269.241,91.0482 270.5,87.5C 270.916,85.2475 272.249,83.7475 274.5,83C 276.81,82.5034 279.143,82.3367 281.5,82.5 Z"/></g>
<g><path style="opacity:1" fill="#e3bdec" d="M 301.5,67.5 C 303.063,70.9154 304.563,74.5821 306,78.5C 309.869,82.0338 313.369,85.8672 316.5,90C 318.519,89.8475 320.519,89.3475 322.5,88.5C 322.232,90.099 322.566,91.4324 323.5,92.5C 323.833,93.8333 324.167,95.1667 324.5,96.5C 320.818,96.6653 317.152,96.4986 313.5,96C 310.921,94.533 308.254,93.3664 305.5,92.5C 305.158,91.6618 304.492,91.3284 303.5,91.5C 302.5,90.8333 301.5,90.1667 300.5,89.5C 301.873,89.6567 303.207,89.49 304.5,89C 305.598,88.2303 305.598,87.397 304.5,86.5C 304.267,84.9382 303.6,83.6049 302.5,82.5C 303.043,82.44 303.376,82.1067 303.5,81.5C 300.539,77.1472 299.873,72.4806 301.5,67.5 Z"/></g>
<g><path style="opacity:1" fill="#573b69" d="M 395.5,88.5 C 395.566,92.7653 396.566,96.7653 398.5,100.5C 398.565,100.938 398.399,101.272 398,101.5C 397.184,100.177 396.017,99.5106 394.5,99.5C 394.5,99.1667 394.5,98.8333 394.5,98.5C 391.481,92.1585 386.481,89.1585 379.5,89.5C 369.161,89.3005 359.828,92.3005 351.5,98.5C 352.63,99.6223 353.297,100.956 353.5,102.5C 351.735,103.461 349.735,103.795 347.5,103.5C 347.5,102.5 347.5,101.5 347.5,100.5C 346.07,100.421 344.736,100.754 343.5,101.5C 342.237,99.9713 341.237,98.3046 340.5,96.5C 343.85,96.665 347.183,96.4983 350.5,96C 355.147,93.5056 359.814,91.339 364.5,89.5C 370.629,86.0687 377.129,83.7354 384,82.5C 389.42,81.7861 393.254,83.7861 395.5,88.5 Z"/></g>
<g><path style="opacity:1" fill="#9b5cb1" d="M 379.5,89.5 C 386.481,89.1585 391.481,92.1585 394.5,98.5C 393.391,98.4431 392.391,98.1098 391.5,97.5C 390.849,96.9094 390.182,96.2427 389.5,95.5C 388.712,96.7701 387.712,97.7701 386.5,98.5C 387.087,97.2334 387.087,96.2334 386.5,95.5C 384.382,96.9459 382.049,97.6126 379.5,97.5C 379.5,94.8333 379.5,92.1667 379.5,89.5 Z"/></g>
<g><path style="opacity:1" fill="#675771" d="M 395.5,88.5 C 398.833,92.5 402.167,96.5 405.5,100.5C 406.219,102.764 406.552,105.097 406.5,107.5C 405.5,107.5 404.5,107.5 403.5,107.5C 402.972,104.312 401.305,101.979 398.5,100.5C 396.566,96.7653 395.566,92.7653 395.5,88.5 Z"/></g>
<g><path style="opacity:1" fill="#cdabda" d="M 361.5,82.5 C 361.833,82.5 362.167,82.5 362.5,82.5C 361.223,84.1484 360.223,85.9817 359.5,88C 360.905,89.2692 362.571,89.7692 364.5,89.5C 359.814,91.339 355.147,93.5056 350.5,96C 347.183,96.4983 343.85,96.665 340.5,96.5C 340.993,94.1944 341.326,91.861 341.5,89.5C 341.833,89.5 342.167,89.5 342.5,89.5C 343.641,91.0876 345.141,92.4209 347,93.5C 348.406,92.3318 349.572,92.6652 350.5,94.5C 351.914,93.376 353.414,92.376 355,91.5C 356.614,88.0603 358.78,85.0603 361.5,82.5 Z"/></g>
<g><path style="opacity:1" fill="#6a5976" d="M 270.5,87.5 C 269.241,91.0482 268.407,94.7148 268,98.5C 266.166,100.07 265.666,101.737 266.5,103.5C 264.273,105.607 262.273,107.94 260.5,110.5C 260.565,110.062 260.399,109.728 260,109.5C 259.114,112.093 257.614,114.093 255.5,115.5C 255.943,110.275 257.276,105.275 259.5,100.5C 262.929,95.9811 266.596,91.6478 270.5,87.5 Z"/></g>
<g><path style="opacity:1" fill="#684579" d="M 305.5,92.5 C 308.254,93.3664 310.921,94.533 313.5,96C 317.152,96.4986 320.818,96.6653 324.5,96.5C 322.328,97.8017 319.994,98.9683 317.5,100C 316.663,101.011 316.33,102.178 316.5,103.5C 313.447,103.889 310.78,103.223 308.5,101.5C 309.376,101.631 310.043,101.298 310.5,100.5C 309.141,97.5095 307.475,94.8429 305.5,92.5 Z"/></g>
<g><path style="opacity:1" fill="#8b50a9" d="M 281.5,89.5 C 283.451,89.2267 284.951,89.8934 286,91.5C 286.812,95.6888 286.645,99.6888 285.5,103.5C 284.71,102.599 283.71,101.932 282.5,101.5C 281.21,100.065 279.544,99.0652 277.5,98.5C 276.713,94.8906 275.38,94.2239 273.5,96.5C 272.833,96.8333 272.167,97.1667 271.5,97.5C 273.383,92.9433 276.717,90.2766 281.5,89.5 Z"/></g>
<g><path style="opacity:1" fill="#65338c" d="M 281.5,89.5 C 283.134,88.8389 284.967,88.5056 287,88.5C 292.639,88.9285 298.139,89.9285 303.5,91.5C 304.492,91.3284 305.158,91.6618 305.5,92.5C 307.475,94.8429 309.141,97.5095 310.5,100.5C 310.043,101.298 309.376,101.631 308.5,101.5C 308.167,101.5 307.833,101.5 307.5,101.5C 305.159,99.3437 303.159,96.8437 301.5,94C 298.571,93.2228 295.737,93.3895 293,94.5C 292.057,97.2507 291.224,99.9174 290.5,102.5C 288.612,104.988 287.945,107.988 288.5,111.5C 287.918,108.728 286.918,106.061 285.5,103.5C 286.645,99.6888 286.812,95.6888 286,91.5C 284.951,89.8934 283.451,89.2267 281.5,89.5 Z"/></g>
<g><path style="opacity:1" fill="#8941b6" d="M 376.5,111.5 C 376.167,111.5 375.833,111.5 375.5,111.5C 375.5,108.833 375.5,106.167 375.5,103.5C 371.524,102.705 367.524,102.038 363.5,101.5C 361.833,101.5 360.167,101.5 358.5,101.5C 360.257,97.4085 363.257,94.7418 367.5,93.5C 372.993,93.9492 374.993,96.9492 373.5,102.5C 374.5,102.5 375.5,102.5 376.5,102.5C 376.5,105.5 376.5,108.5 376.5,111.5 Z"/></g>
<g><path style="opacity:1" fill="#8842b4" d="M 307.5,101.5 C 305.167,101.5 302.833,101.5 300.5,101.5C 297.333,101.4 294.333,102.067 291.5,103.5C 290.893,103.376 290.56,103.043 290.5,102.5C 291.224,99.9174 292.057,97.2507 293,94.5C 295.737,93.3895 298.571,93.2228 301.5,94C 303.159,96.8437 305.159,99.3437 307.5,101.5 Z"/></g>
<g><path style="opacity:1" fill="#6a388e" d="M 379.5,89.5 C 379.5,92.1667 379.5,94.8333 379.5,97.5C 382.049,97.6126 384.382,96.9459 386.5,95.5C 387.087,96.2334 387.087,97.2334 386.5,98.5C 379.892,100.427 376.892,104.76 377.5,111.5C 377.167,111.5 376.833,111.5 376.5,111.5C 376.5,108.5 376.5,105.5 376.5,102.5C 375.5,102.5 374.5,102.5 373.5,102.5C 374.993,96.9492 372.993,93.9492 367.5,93.5C 363.257,94.7418 360.257,97.4085 358.5,101.5C 356.784,101.629 355.117,101.962 353.5,102.5C 353.297,100.956 352.63,99.6223 351.5,98.5C 359.828,92.3005 369.161,89.3005 379.5,89.5 Z"/></g>
<g><path style="opacity:1" fill="#ecb5f0" d="M 300.5,101.5 C 302.833,101.5 305.167,101.5 307.5,101.5C 307.833,101.5 308.167,101.5 308.5,101.5C 310.78,103.223 313.447,103.889 316.5,103.5C 316.833,103.5 317.167,103.5 317.5,103.5C 317.737,104.791 317.404,105.791 316.5,106.5C 316.38,105.414 315.713,104.747 314.5,104.5C 309.882,104.846 305.216,105.013 300.5,105C 299.253,106.494 299.253,107.994 300.5,109.5C 302.618,110.946 304.951,111.613 307.5,111.5C 305.712,112.622 303.712,112.789 301.5,112C 298.89,110.519 296.223,109.352 293.5,108.5C 292.596,107.791 292.263,106.791 292.5,105.5C 296.39,106.223 299.056,104.89 300.5,101.5 Z"/></g>
<g><path style="opacity:1" fill="#5e3d6f" d="M 339.5,105.5 C 339.824,109.555 339.491,113.555 338.5,117.5C 336.779,119.393 334.945,121.059 333,122.5C 330.677,120.848 328.344,119.181 326,117.5C 325.501,113.179 325.334,108.846 325.5,104.5C 327.233,103.992 327.566,103.159 326.5,102C 327.833,101.833 329.167,101.667 330.5,101.5C 333.842,102.182 336.842,103.516 339.5,105.5 Z"/></g>
<g><path style="opacity:1" fill="#532865" d="M 282.5,101.5 C 283.71,101.932 284.71,102.599 285.5,103.5C 286.918,106.061 287.918,108.728 288.5,111.5C 288.785,117.21 287.785,122.543 285.5,127.5C 284.833,127.5 284.167,127.5 283.5,127.5C 283.821,125.952 284.821,125.285 286.5,125.5C 286.785,123.712 286.452,122.045 285.5,120.5C 284.186,119.687 283.019,118.687 282,117.5C 281.21,112.541 280.043,107.708 278.5,103C 279.563,101.812 280.897,101.312 282.5,101.5 Z"/></g>
<g><path style="opacity:1" fill="#fbe8fb" d="M 316.5,106.5 C 315.833,108.167 315.167,109.833 314.5,111.5C 312.167,111.5 309.833,111.5 307.5,111.5C 304.951,111.613 302.618,110.946 300.5,109.5C 299.253,107.994 299.253,106.494 300.5,105C 305.216,105.013 309.882,104.846 314.5,104.5C 315.713,104.747 316.38,105.414 316.5,106.5 Z"/></g>
<g><path style="opacity:1" fill="#fce4fc" d="M 352.5,111.5 C 351.833,111.5 351.167,111.5 350.5,111.5C 349.559,109.95 348.893,108.284 348.5,106.5C 348.62,105.414 349.287,104.747 350.5,104.5C 354.77,104.768 359.104,104.934 363.5,105C 367.587,107.437 367.254,109.437 362.5,111C 359.183,111.498 355.85,111.665 352.5,111.5 Z"/></g>
<g><path style="opacity:1" fill="#6e3380" d="M 391.5,97.5 C 391.5,98.8333 391.5,100.167 391.5,101.5C 390.126,110.587 386.793,118.92 381.5,126.5C 380.883,126.389 380.383,126.056 380,125.5C 378.638,121.541 379.638,118.541 383,116.5C 383.755,113.697 383.422,111.03 382,108.5C 380.989,107.663 379.822,107.33 378.5,107.5C 378.5,108.5 378.5,109.5 378.5,110.5C 378.5,111.167 378.167,111.5 377.5,111.5C 376.892,104.76 379.892,100.427 386.5,98.5C 387.712,97.7701 388.712,96.7701 389.5,95.5C 390.182,96.2427 390.849,96.9094 391.5,97.5 Z"/></g>
<g><path style="opacity:0.098" fill="#865d97" d="M 398.5,82.5 C 400.265,85.7089 402.265,88.7089 404.5,91.5C 406.395,96.6824 408.229,102.016 410,107.5C 410.777,110.429 410.61,113.263 409.5,116C 408.216,116.684 407.049,116.517 406,115.5C 403.528,109.193 399.694,103.86 394.5,99.5C 396.017,99.5106 397.184,100.177 398,101.5C 398.399,101.272 398.565,100.938 398.5,100.5C 401.305,101.979 402.972,104.312 403.5,107.5C 404.5,107.5 405.5,107.5 406.5,107.5C 406.552,105.097 406.219,102.764 405.5,100.5C 404.451,97.5299 403.284,94.5299 402,91.5C 397.963,87.631 394.13,83.631 390.5,79.5C 390.56,78.9569 390.893,78.6236 391.5,78.5C 393.725,80.11 396.059,81.4434 398.5,82.5 Z"/></g>
<g><path style="opacity:1" fill="#eeb2f3" d="M 358.5,101.5 C 360.167,101.5 361.833,101.5 363.5,101.5C 365.139,102.473 366.473,103.806 367.5,105.5C 367.219,110.346 364.553,113.012 359.5,113.5C 356.845,113.56 354.511,112.893 352.5,111.5C 355.85,111.665 359.183,111.498 362.5,111C 367.254,109.437 367.587,107.437 363.5,105C 359.104,104.934 354.77,104.768 350.5,104.5C 349.287,104.747 348.62,105.414 348.5,106.5C 347.596,105.791 347.263,104.791 347.5,103.5C 349.735,103.795 351.735,103.461 353.5,102.5C 355.117,101.962 356.784,101.629 358.5,101.5 Z"/></g>
<g><path style="opacity:1" fill="#271135" d="M 377.5,111.5 C 378.167,111.5 378.5,111.167 378.5,110.5C 380.565,109.174 381.898,109.841 382.5,112.5C 380.808,114.359 379.308,116.359 378,118.5C 377.503,116.19 377.337,113.857 377.5,111.5 Z"/></g>
<g><path style="opacity:1" fill="#f7a1f7" d="M 293.5,108.5 C 296.223,109.352 298.89,110.519 301.5,112C 303.712,112.789 305.712,112.622 307.5,111.5C 309.833,111.5 312.167,111.5 314.5,111.5C 314.167,112.167 313.833,112.833 313.5,113.5C 307.935,115.623 302.268,115.957 296.5,114.5C 295.044,112.716 294.044,110.716 293.5,108.5 Z"/></g>
<g><path style="opacity:1" fill="#f6a1f8" d="M 367.5,105.5 C 369.288,105.215 370.955,105.548 372.5,106.5C 371.906,109.308 370.573,111.641 368.5,113.5C 362.805,116.09 357.138,116.09 351.5,113.5C 351.167,112.833 350.833,112.167 350.5,111.5C 351.167,111.5 351.833,111.5 352.5,111.5C 354.511,112.893 356.845,113.56 359.5,113.5C 364.553,113.012 367.219,110.346 367.5,105.5 Z"/></g>
<g><path style="opacity:0.11" fill="#a254ab" d="M 260.5,110.5 C 260.509,112.308 260.009,113.975 259,115.5C 257.708,116.791 256.542,116.791 255.5,115.5C 257.614,114.093 259.114,112.093 260,109.5C 260.399,109.728 260.565,110.062 260.5,110.5 Z"/></g>
<g><path style="opacity:1" fill="#7b3b89" d="M 282.5,101.5 C 280.897,101.312 279.563,101.812 278.5,103C 280.043,107.708 281.21,112.541 282,117.5C 283.019,118.687 284.186,119.687 285.5,120.5C 286.452,122.045 286.785,123.712 286.5,125.5C 284.821,125.285 283.821,125.952 283.5,127.5C 282.833,129.167 282.167,130.833 281.5,132.5C 281.5,132.833 281.5,133.167 281.5,133.5C 280.833,134.167 280.167,134.833 279.5,135.5C 279.647,132.557 280.313,129.724 281.5,127C 275.058,117.839 272.392,107.672 273.5,96.5C 275.38,94.2239 276.713,94.8906 277.5,98.5C 279.544,99.0652 281.21,100.065 282.5,101.5 Z"/></g>
<g><path style="opacity:0.271" fill="#965aa4" d="M 391.5,101.5 C 391.575,105.897 391.075,110.23 390,114.5C 387.557,119.052 385.39,123.718 383.5,128.5C 384.054,130.61 384.888,132.61 386,134.5C 386.805,137.696 386.638,140.696 385.5,143.5C 385.664,140.813 385.497,138.146 385,135.5C 384.722,134.584 384.222,133.918 383.5,133.5C 383.167,132.833 382.833,132.167 382.5,131.5C 381.766,130.292 381.433,128.959 381.5,127.5C 381.5,127.167 381.5,126.833 381.5,126.5C 386.793,118.92 390.126,110.587 391.5,101.5 Z"/></g>
<g><path style="opacity:1" fill="#ea85f6" d="M 313.5,113.5 C 314.625,114.652 314.625,115.652 313.5,116.5C 311.473,116.338 309.473,116.505 307.5,117C 306.275,118.563 304.775,119.73 303,120.5C 301.333,118.152 299.166,116.152 296.5,114.5C 302.268,115.957 307.935,115.623 313.5,113.5 Z"/></g>
<g><path style="opacity:1" fill="#ec86f4" d="M 351.5,113.5 C 357.138,116.09 362.805,116.09 368.5,113.5C 366.926,116.435 364.76,118.768 362,120.5C 360.099,119.464 358.265,118.298 356.5,117C 354.527,116.505 352.527,116.338 350.5,116.5C 351.11,115.609 351.443,114.609 351.5,113.5 Z"/></g>
<g><path style="opacity:1" fill="#583166" d="M 381.5,126.5 C 381.5,126.833 381.5,127.167 381.5,127.5C 380.417,127.461 379.417,127.127 378.5,126.5C 377.461,122.895 376.795,119.228 376.5,115.5C 376.5,114.167 376.5,112.833 376.5,111.5C 376.833,111.5 377.167,111.5 377.5,111.5C 377.337,113.857 377.503,116.19 378,118.5C 379.308,116.359 380.808,114.359 382.5,112.5C 381.898,109.841 380.565,109.174 378.5,110.5C 378.5,109.5 378.5,108.5 378.5,107.5C 379.822,107.33 380.989,107.663 382,108.5C 383.422,111.03 383.755,113.697 383,116.5C 379.638,118.541 378.638,121.541 380,125.5C 380.383,126.056 380.883,126.389 381.5,126.5 Z"/></g>
<g><path style="opacity:1" fill="#b761cd" d="M 300.5,101.5 C 299.056,104.89 296.39,106.223 292.5,105.5C 292.263,106.791 292.596,107.791 293.5,108.5C 294.044,110.716 295.044,112.716 296.5,114.5C 299.166,116.152 301.333,118.152 303,120.5C 304.775,119.73 306.275,118.563 307.5,117C 309.473,116.505 311.473,116.338 313.5,116.5C 309.895,121.774 305.562,126.441 300.5,130.5C 299.833,130.5 299.5,130.167 299.5,129.5C 299.245,124.578 296.579,121.911 291.5,121.5C 291.741,119.102 291.074,117.102 289.5,115.5C 289.768,113.901 289.434,112.568 288.5,111.5C 287.945,107.988 288.612,104.988 290.5,102.5C 290.56,103.043 290.893,103.376 291.5,103.5C 294.333,102.067 297.333,101.4 300.5,101.5 Z"/></g>
<g><path style="opacity:1" fill="#3a1c51" d="M 325.5,104.5 C 325.334,108.846 325.501,113.179 326,117.5C 328.344,119.181 330.677,120.848 333,122.5C 334.945,121.059 336.779,119.393 338.5,117.5C 339.491,113.555 339.824,109.555 339.5,105.5C 340.15,105.804 340.817,106.137 341.5,106.5C 342.227,110.322 343.227,113.989 344.5,117.5C 341.231,122.637 342.231,123.637 347.5,120.5C 348.425,121.357 349.092,122.357 349.5,123.5C 348.713,125.104 347.38,125.771 345.5,125.5C 341.921,125.316 338.587,125.983 335.5,127.5C 332.604,128.775 329.604,128.775 326.5,127.5C 322.058,123.267 319.725,117.933 319.5,111.5C 320.11,110.609 320.443,109.609 320.5,108.5C 322.389,107.396 324.055,106.063 325.5,104.5 Z"/></g>
<g><path style="opacity:1" fill="#b762cd" d="M 363.5,101.5 C 367.524,102.038 371.524,102.705 375.5,103.5C 375.5,106.167 375.5,108.833 375.5,111.5C 374.626,114.789 373.959,118.123 373.5,121.5C 370.832,121.666 368.498,122.666 366.5,124.5C 365.832,126.969 365.165,129.302 364.5,131.5C 359.833,126.5 355.167,121.5 350.5,116.5C 352.527,116.338 354.527,116.505 356.5,117C 358.265,118.298 360.099,119.464 362,120.5C 364.76,118.768 366.926,116.435 368.5,113.5C 370.573,111.641 371.906,109.308 372.5,106.5C 370.955,105.548 369.288,105.215 367.5,105.5C 366.473,103.806 365.139,102.473 363.5,101.5 Z"/></g>
<g><path style="opacity:1" fill="#221130" d="M 335.5,127.5 C 332.873,126.908 330.206,126.575 327.5,126.5C 327.5,125.5 327.5,124.5 327.5,123.5C 332.358,123.474 337.025,122.974 341.5,122C 339.304,123.699 337.304,125.533 335.5,127.5 Z"/></g>
<g><path style="opacity:1" fill="#904ea7" d="M 347.5,103.5 C 347.263,104.791 347.596,105.791 348.5,106.5C 348.893,108.284 349.559,109.95 350.5,111.5C 350.833,112.167 351.167,112.833 351.5,113.5C 351.443,114.609 351.11,115.609 350.5,116.5C 355.167,121.5 359.833,126.5 364.5,131.5C 363.791,132.404 362.791,132.737 361.5,132.5C 359.859,131.853 358.526,130.853 357.5,129.5C 355.925,126.418 353.758,123.751 351,121.5C 350.722,122.416 350.222,123.082 349.5,123.5C 349.092,122.357 348.425,121.357 347.5,120.5C 342.231,123.637 341.231,122.637 344.5,117.5C 345.947,116.866 346.613,115.699 346.5,114C 345.539,111.41 344.872,108.743 344.5,106C 344.437,103.123 345.437,102.289 347.5,103.5 Z"/></g>
<g><path style="opacity:1" fill="#683382" d="M 319.5,111.5 C 319.725,117.933 322.058,123.267 326.5,127.5C 325.041,127.433 323.708,127.766 322.5,128.5C 321.411,126.883 319.744,126.05 317.5,126C 315.859,124.871 314.859,123.371 314.5,121.5C 315.105,119.974 316.271,118.974 318,118.5C 318.353,117.328 318.187,116.162 317.5,115C 317.808,113.541 318.475,112.374 319.5,111.5 Z"/></g>
<g><path style="opacity:1" fill="#e7a4f2" d="M 357.5,129.5 C 354.833,129.5 352.167,129.5 349.5,129.5C 347.716,128.28 346.05,128.28 344.5,129.5C 343.596,128.791 343.263,127.791 343.5,126.5C 344.492,126.672 345.158,126.338 345.5,125.5C 347.38,125.771 348.713,125.104 349.5,123.5C 350.222,123.082 350.722,122.416 351,121.5C 353.758,123.751 355.925,126.418 357.5,129.5 Z"/></g>
<g><path style="opacity:1" fill="#6c3986" d="M 289.5,115.5 C 291.074,117.102 291.741,119.102 291.5,121.5C 296.579,121.911 299.245,124.578 299.5,129.5C 298.504,129.586 297.671,129.252 297,128.5C 296.667,129.5 296.333,130.5 296,131.5C 295.693,128.124 293.86,126.79 290.5,127.5C 290.167,123.5 289.833,119.5 289.5,115.5 Z"/></g>
<g><path style="opacity:1" fill="#9650ad" d="M 320.5,108.5 C 320.443,109.609 320.11,110.609 319.5,111.5C 318.475,112.374 317.808,113.541 317.5,115C 318.187,116.162 318.353,117.328 318,118.5C 316.271,118.974 315.105,119.974 314.5,121.5C 311.473,123.86 308.806,126.527 306.5,129.5C 304.8,129.626 303.3,130.293 302,131.5C 301.235,131.43 300.735,131.097 300.5,130.5C 305.562,126.441 309.895,121.774 313.5,116.5C 314.625,115.652 314.625,114.652 313.5,113.5C 313.833,112.833 314.167,112.167 314.5,111.5C 315.167,109.833 315.833,108.167 316.5,106.5C 317.404,105.791 317.737,104.791 317.5,103.5C 318.458,103.047 319.292,102.381 320,101.5C 320.497,103.81 320.663,106.143 320.5,108.5 Z"/></g>
<g><path style="opacity:1" fill="#77448d" d="M 375.5,111.5 C 375.833,111.5 376.167,111.5 376.5,111.5C 376.5,112.833 376.5,114.167 376.5,115.5C 375.594,119.678 374.76,124.012 374,128.5C 373.667,128.833 373.333,129.167 373,129.5C 372.577,128.044 371.744,127.544 370.5,128C 369.918,130.974 368.585,133.474 366.5,135.5C 364.632,134.737 362.965,133.737 361.5,132.5C 362.791,132.737 363.791,132.404 364.5,131.5C 365.165,129.302 365.832,126.969 366.5,124.5C 368.498,122.666 370.832,121.666 373.5,121.5C 373.959,118.123 374.626,114.789 375.5,111.5 Z"/></g>
<g><path style="opacity:1" fill="#e09aec" d="M 314.5,121.5 C 314.859,123.371 315.859,124.871 317.5,126C 319.744,126.05 321.411,126.883 322.5,128.5C 322.5,130.5 322.5,132.5 322.5,134.5C 322.5,134.833 322.5,135.167 322.5,135.5C 319.3,136.044 316.967,137.71 315.5,140.5C 315.5,138.833 315.5,137.167 315.5,135.5C 317.063,134.055 318.396,132.389 319.5,130.5C 320.85,129.35 320.684,128.683 319,128.5C 316.567,129.479 314.067,130.145 311.5,130.5C 309.833,130.5 308.167,130.5 306.5,130.5C 306.5,130.167 306.5,129.833 306.5,129.5C 308.806,126.527 311.473,123.86 314.5,121.5 Z"/></g>
<g><path style="opacity:1" fill="#7b41a7" d="M 345.5,125.5 C 345.158,126.338 344.492,126.672 343.5,126.5C 342.527,128.948 342.194,131.615 342.5,134.5C 335.833,134.5 329.167,134.5 322.5,134.5C 322.5,132.5 322.5,130.5 322.5,128.5C 323.708,127.766 325.041,127.433 326.5,127.5C 329.604,128.775 332.604,128.775 335.5,127.5C 338.587,125.983 341.921,125.316 345.5,125.5 Z"/></g>
<g><path style="opacity:1" fill="#9977a7" d="M 288.5,111.5 C 289.434,112.568 289.768,113.901 289.5,115.5C 289.833,119.5 290.167,123.5 290.5,127.5C 293.86,126.79 295.693,128.124 296,131.5C 296.333,130.5 296.667,129.5 297,128.5C 297.671,129.252 298.504,129.586 299.5,129.5C 299.5,130.167 299.833,130.5 300.5,130.5C 300.735,131.097 301.235,131.43 302,131.5C 303.3,130.293 304.8,129.626 306.5,129.5C 306.5,129.833 306.5,130.167 306.5,130.5C 304.795,132.192 302.795,133.525 300.5,134.5C 297.972,133.989 295.472,133.322 293,132.5C 291.105,132.615 289.438,133.282 288,134.5C 286.199,132.862 286.032,131.028 287.5,129C 287.164,127.97 286.497,127.47 285.5,127.5C 287.785,122.543 288.785,117.21 288.5,111.5 Z"/></g>
<g><path style="opacity:1" fill="#f0deef" d="M 344.5,129.5 C 346.05,128.28 347.716,128.28 349.5,129.5C 354.056,130.945 357.722,133.611 360.5,137.5C 362.692,140.55 364.358,143.883 365.5,147.5C 365.318,160.187 365.651,172.853 366.5,185.5C 366.649,186.552 366.483,187.552 366,188.5C 365.451,186.24 364.284,184.574 362.5,183.5C 362.483,181.435 362.15,179.435 361.5,177.5C 361.664,169.459 361.164,161.459 360,153.5C 359.61,150.896 358.776,148.562 357.5,146.5C 356.013,142.855 354.513,139.188 353,135.5C 351.961,134.29 350.794,133.29 349.5,132.5C 347.668,131.752 346.001,130.752 344.5,129.5 Z"/></g>
<g><path style="opacity:1" fill="#48312a" d="M 382.5,131.5 C 382.833,132.167 383.167,132.833 383.5,133.5C 383.116,135.929 382.449,138.263 381.5,140.5C 380.257,137.367 379.757,134.033 380,130.5C 380.671,131.252 381.504,131.586 382.5,131.5 Z"/></g>
<g><path style="opacity:1" fill="#4d3732" d="M 283.5,141.5 C 283.307,138.692 282.64,136.025 281.5,133.5C 281.5,133.167 281.5,132.833 281.5,132.5C 282.721,131.972 283.887,131.305 285,130.5C 285.35,134.381 284.85,138.048 283.5,141.5 Z"/></g>
<g><path style="opacity:1" fill="#ab71bf" d="M 343.5,126.5 C 343.263,127.791 343.596,128.791 344.5,129.5C 346.001,130.752 347.668,131.752 349.5,132.5C 350.953,135.986 351.619,139.653 351.5,143.5C 348.806,140.14 345.806,137.14 342.5,134.5C 342.194,131.615 342.527,128.948 343.5,126.5 Z"/></g>
<g><path style="opacity:1" fill="#321b47" d="M 322.5,135.5 C 328.842,135.334 335.175,135.5 341.5,136C 343.319,137.415 343.985,138.915 343.5,140.5C 342.167,140.833 340.833,141.167 339.5,141.5C 337.603,140.195 335.269,139.529 332.5,139.5C 329.731,139.529 327.397,140.195 325.5,141.5C 323.795,140.465 322.128,140.465 320.5,141.5C 320.167,141 319.833,140.5 319.5,140C 320.315,138.357 321.315,136.857 322.5,135.5 Z"/></g>
<g><path style="opacity:1" fill="#7f618b" d="M 339.5,141.5 C 338.833,141.5 338.167,141.5 337.5,141.5C 333.5,141.5 329.5,141.5 325.5,141.5C 327.397,140.195 329.731,139.529 332.5,139.5C 335.269,139.529 337.603,140.195 339.5,141.5 Z"/></g>
<g><path style="opacity:0.357" fill="#7a5484" d="M 279.5,135.5 C 279.5,138.167 279.5,140.833 279.5,143.5C 278.12,143.038 277.453,142.038 277.5,140.5C 277.801,138.578 278.467,136.912 279.5,135.5 Z"/></g>
<g><path style="opacity:1" fill="#190713" d="M 281.5,133.5 C 282.64,136.025 283.307,138.692 283.5,141.5C 283.5,142.5 283.5,143.5 283.5,144.5C 282.167,144.167 280.833,143.833 279.5,143.5C 279.5,140.833 279.5,138.167 279.5,135.5C 280.167,134.833 280.833,134.167 281.5,133.5 Z"/></g>
<g><path style="opacity:1" fill="#f0ddef" d="M 319.5,130.5 C 317.534,131.441 315.534,132.441 313.5,133.5C 305.894,144.92 302.894,157.253 304.5,170.5C 303.993,174.86 303.327,179.193 302.5,183.5C 300.39,184.453 299.223,186.119 299,188.5C 298.517,187.552 298.351,186.552 298.5,185.5C 299.833,174.167 299.833,162.833 298.5,151.5C 299.907,144.686 302.907,138.686 307.5,133.5C 308.872,132.488 310.205,131.488 311.5,130.5C 314.067,130.145 316.567,129.479 319,128.5C 320.684,128.683 320.85,129.35 319.5,130.5 Z"/></g>
<g><path style="opacity:1" fill="#522170" d="M 322.5,135.5 C 322.5,135.167 322.5,134.833 322.5,134.5C 329.167,134.5 335.833,134.5 342.5,134.5C 345.806,137.14 348.806,140.14 351.5,143.5C 351.5,143.833 351.5,144.167 351.5,144.5C 351.5,144.833 351.5,145.167 351.5,145.5C 348.79,143.768 346.124,142.101 343.5,140.5C 343.985,138.915 343.319,137.415 341.5,136C 335.175,135.5 328.842,135.334 322.5,135.5 Z"/></g>
<g><path style="opacity:0.992" fill="#180810" d="M 383.5,133.5 C 384.222,133.918 384.722,134.584 385,135.5C 385.497,138.146 385.664,140.813 385.5,143.5C 382.463,145.186 381.13,144.186 381.5,140.5C 382.449,138.263 383.116,135.929 383.5,133.5 Z"/></g>
<g><path style="opacity:1" fill="#703d97" d="M 322.5,135.5 C 321.315,136.857 320.315,138.357 319.5,140C 319.833,140.5 320.167,141 320.5,141.5C 322.128,140.465 323.795,140.465 325.5,141.5C 329.5,141.5 333.5,141.5 337.5,141.5C 333.316,142.166 328.982,142.833 324.5,143.5C 324.833,144.167 325.167,144.833 325.5,145.5C 331.559,145.863 337.226,146.863 342.5,148.5C 335.833,148.5 329.167,148.5 322.5,148.5C 321.244,142.034 318.244,141.034 313.5,145.5C 314.167,143.833 314.833,142.167 315.5,140.5C 316.967,137.71 319.3,136.044 322.5,135.5 Z"/></g>
<g><path style="opacity:1" fill="#9454bb" d="M 343.5,140.5 C 346.124,142.101 348.79,143.768 351.5,145.5C 353.112,149.994 353.778,154.661 353.5,159.5C 346.798,158.684 343.131,155.018 342.5,148.5C 337.226,146.863 331.559,145.863 325.5,145.5C 325.167,144.833 324.833,144.167 324.5,143.5C 328.982,142.833 333.316,142.166 337.5,141.5C 338.167,141.5 338.833,141.5 339.5,141.5C 340.833,141.167 342.167,140.833 343.5,140.5 Z"/></g>
<g><path style="opacity:1" fill="#9857bd" d="M 322.5,148.5 C 322.662,150.527 322.495,152.527 322,154.5C 318.944,156.392 315.778,158.059 312.5,159.5C 311.391,159.443 310.391,159.11 309.5,158.5C 310.086,153.874 311.419,149.541 313.5,145.5C 318.244,141.034 321.244,142.034 322.5,148.5 Z"/></g>
<g><path style="opacity:1" fill="#ab8baf" d="M 307.5,133.5 C 302.907,138.686 299.907,144.686 298.5,151.5C 297.511,157.322 296.844,163.322 296.5,169.5C 294.614,170.361 292.78,171.361 291,172.5C 290.667,171.167 290.333,169.833 290,168.5C 289.667,168.833 289.333,169.167 289,169.5C 288.856,165.496 289.189,161.496 290,157.5C 292.291,152.05 294.791,146.717 297.5,141.5C 300.973,138.795 304.306,136.128 307.5,133.5 Z"/></g>
<g><path style="opacity:1" fill="#582c7b" d="M 322.5,148.5 C 329.167,148.5 335.833,148.5 342.5,148.5C 343.131,155.018 346.798,158.684 353.5,159.5C 352.833,161.167 352.167,162.833 351.5,164.5C 348.139,163.316 345.139,161.483 342.5,159C 339.568,157.855 336.568,157.022 333.5,156.5C 332.833,156.5 332.167,156.5 331.5,156.5C 328.353,156.737 325.353,157.57 322.5,159C 319.861,161.483 316.861,163.316 313.5,164.5C 312.699,162.958 312.366,161.292 312.5,159.5C 315.778,158.059 318.944,156.392 322,154.5C 322.495,152.527 322.662,150.527 322.5,148.5 Z"/></g>
<g><path style="opacity:1" fill="#ac8eb3" d="M 283.5,127.5 C 284.167,127.5 284.833,127.5 285.5,127.5C 286.497,127.47 287.164,127.97 287.5,129C 286.032,131.028 286.199,132.862 288,134.5C 289.438,133.282 291.105,132.615 293,132.5C 295.472,133.322 297.972,133.989 300.5,134.5C 294.742,139.464 291.242,145.797 290,153.5C 286.868,158.768 284.035,164.101 281.5,169.5C 280.8,167.237 279.8,165.904 278.5,165.5C 280.336,158.492 282.003,151.492 283.5,144.5C 283.5,143.5 283.5,142.5 283.5,141.5C 284.85,138.048 285.35,134.381 285,130.5C 283.887,131.305 282.721,131.972 281.5,132.5C 282.167,130.833 282.833,129.167 283.5,127.5 Z"/></g>
<g><path style="opacity:1" fill="#ae8db6" d="M 376.5,115.5 C 376.795,119.228 377.461,122.895 378.5,126.5C 379.417,127.127 380.417,127.461 381.5,127.5C 381.433,128.959 381.766,130.292 382.5,131.5C 381.504,131.586 380.671,131.252 380,130.5C 379.757,134.033 380.257,137.367 381.5,140.5C 381.13,144.186 382.463,145.186 385.5,143.5C 384.315,144.857 383.315,146.357 382.5,148C 384.609,154.327 387.109,160.494 390,166.5C 391.043,169.757 391.543,173.09 391.5,176.5C 390.021,180.909 389.354,185.576 389.5,190.5C 389.638,197.368 390.305,204.034 391.5,210.5C 382.379,239.064 377.879,268.397 378,298.5C 377.472,302.699 376.639,306.699 375.5,310.5C 375.56,301.487 375.893,292.487 376.5,283.5C 377.222,283.082 377.722,282.416 378,281.5C 378.268,268.821 378.768,256.155 379.5,243.5C 379.297,240.803 378.964,238.136 378.5,235.5C 384.654,219.152 386.82,202.152 385,184.5C 382.869,179.637 381.535,174.637 381,169.5C 382.667,173.833 384.333,178.167 386,182.5C 385.517,177.034 384.184,171.7 382,166.5C 377.109,155.97 371.942,145.637 366.5,135.5C 368.585,133.474 369.918,130.974 370.5,128C 371.744,127.544 372.577,128.044 373,129.5C 373.333,129.167 373.667,128.833 374,128.5C 374.76,124.012 375.594,119.678 376.5,115.5 Z"/></g>
<g><path style="opacity:1" fill="#ac95b1" d="M 319.5,130.5 C 318.396,132.389 317.063,134.055 315.5,135.5C 313.292,136.894 311.792,138.894 311,141.5C 308.62,151.112 306.453,160.779 304.5,170.5C 302.894,157.253 305.894,144.92 313.5,133.5C 315.534,132.441 317.534,131.441 319.5,130.5 Z"/></g>
<g><path style="opacity:1" fill="#aa8baf" d="M 368.5,169.5 C 368.208,161.925 367.208,154.592 365.5,147.5C 364.358,143.883 362.692,140.55 360.5,137.5C 360.435,137.062 360.601,136.728 361,136.5C 363.963,138.461 366.629,140.794 369,143.5C 371.051,149.271 373.384,154.937 376,160.5C 376.667,163.5 376.667,166.5 376,169.5C 375.667,169.167 375.333,168.833 375,168.5C 374.781,169.938 374.281,171.271 373.5,172.5C 371.64,171.74 369.973,170.74 368.5,169.5 Z"/></g>
<g><path style="opacity:1" fill="#9862bd" d="M 333.5,156.5 C 336.568,157.022 339.568,157.855 342.5,159C 345.139,161.483 348.139,163.316 351.5,164.5C 351.027,165.906 350.027,166.573 348.5,166.5C 346.501,165.143 345.335,165.81 345,168.5C 343.644,167.62 342.144,167.286 340.5,167.5C 340.435,165.304 339.768,163.304 338.5,161.5C 337.522,161.977 336.689,162.643 336,163.5C 335.847,160.849 335.013,158.516 333.5,156.5 Z"/></g>
<g><path style="opacity:1" fill="#9461ba" d="M 331.5,156.5 C 329.832,158.479 329.166,160.812 329.5,163.5C 328.518,162.859 327.518,162.193 326.5,161.5C 325.614,162.325 325.281,163.325 325.5,164.5C 324.596,165.209 324.263,166.209 324.5,167.5C 322.856,167.286 321.356,167.62 320,168.5C 319.665,165.81 318.499,165.143 316.5,166.5C 314.973,166.573 313.973,165.906 313.5,164.5C 316.861,163.316 319.861,161.483 322.5,159C 325.353,157.57 328.353,156.737 331.5,156.5 Z"/></g>
<g><path style="opacity:1" fill="#9e79c0" d="M 351.5,144.5 C 352.892,146.273 354.059,148.273 355,150.5C 355.068,160.954 355.902,171.288 357.5,181.5C 354.245,176.656 351.245,171.656 348.5,166.5C 350.027,166.573 351.027,165.906 351.5,164.5C 352.167,162.833 352.833,161.167 353.5,159.5C 353.778,154.661 353.112,149.994 351.5,145.5C 351.5,145.167 351.5,144.833 351.5,144.5 Z"/></g>
<g><path style="opacity:1" fill="#b59eba" d="M 357.5,146.5 C 358.776,148.562 359.61,150.896 360,153.5C 361.164,161.459 361.664,169.459 361.5,177.5C 359.233,166.987 357.4,156.32 356,145.5C 356.383,146.056 356.883,146.389 357.5,146.5 Z"/></g>
<g><path style="opacity:1" fill="#c2a3c0" d="M 289.5,214.5 C 287.95,221.389 287.45,228.389 288,235.5C 289,234.167 290,232.833 291,231.5C 291.464,232.094 291.631,232.761 291.5,233.5C 291.5,235.5 291.5,237.5 291.5,239.5C 290.679,242.641 290.179,245.975 290,249.5C 289.5,264.83 289.333,280.163 289.5,295.5C 288.785,291.312 287.452,287.312 285.5,283.5C 285.5,282.5 285.5,281.5 285.5,280.5C 285.5,272.833 285.5,265.167 285.5,257.5C 285.848,241.587 284.015,225.92 280,210.5C 278.743,199.464 279.576,188.63 282.5,178C 282.17,173.288 283.336,168.788 286,164.5C 286.492,169.84 287.326,175.007 288.5,180C 288.766,183.297 287.766,186.13 285.5,188.5C 288.279,196.873 289.612,205.54 289.5,214.5 Z"/></g>
<g><path style="opacity:1" fill="#a07fc2" d="M 309.5,158.5 C 310.391,159.11 311.391,159.443 312.5,159.5C 312.366,161.292 312.699,162.958 313.5,164.5C 313.973,165.906 314.973,166.573 316.5,166.5C 313.755,171.656 310.755,176.656 307.5,181.5C 307.352,173.753 308.019,166.087 309.5,158.5 Z"/></g>
<g><path style="opacity:1" fill="#fbf0fa" d="M 329.5,163.5 C 331.898,160.539 333.564,160.872 334.5,164.5C 335.745,175.323 335.745,186.323 334.5,197.5C 334.624,203.59 333.958,209.59 332.5,215.5C 331.117,208.91 330.284,202.243 330,195.5C 328.909,199.46 327.909,203.46 327,207.5C 326.066,210.88 324.399,213.88 322,216.5C 321.501,210.843 321.334,205.176 321.5,199.5C 321.347,193.131 321.68,186.797 322.5,180.5C 322.865,174.965 323.865,169.632 325.5,164.5C 325.281,163.325 325.614,162.325 326.5,161.5C 327.518,162.193 328.518,162.859 329.5,163.5 Z"/></g>
<g><path style="opacity:1" fill="#c3a2c2" d="M 349.5,129.5 C 352.167,129.5 354.833,129.5 357.5,129.5C 358.526,130.853 359.859,131.853 361.5,132.5C 362.965,133.737 364.632,134.737 366.5,135.5C 371.942,145.637 377.109,155.97 382,166.5C 384.184,171.7 385.517,177.034 386,182.5C 384.333,178.167 382.667,173.833 381,169.5C 381.535,174.637 382.869,179.637 385,184.5C 386.82,202.152 384.654,219.152 378.5,235.5C 375.961,213.501 372.627,191.501 368.5,169.5C 369.973,170.74 371.64,171.74 373.5,172.5C 374.281,171.271 374.781,169.938 375,168.5C 375.333,168.833 375.667,169.167 376,169.5C 376.667,166.5 376.667,163.5 376,160.5C 373.384,154.937 371.051,149.271 369,143.5C 366.629,140.794 363.963,138.461 361,136.5C 360.601,136.728 360.435,137.062 360.5,137.5C 357.722,133.611 354.056,130.945 349.5,129.5 Z"/></g>
<g><path style="opacity:1" fill="#bf9fc1" d="M 306.5,130.5 C 308.167,130.5 309.833,130.5 311.5,130.5C 310.205,131.488 308.872,132.488 307.5,133.5C 304.306,136.128 300.973,138.795 297.5,141.5C 294.791,146.717 292.291,152.05 290,157.5C 289.189,161.496 288.856,165.496 289,169.5C 289.333,169.167 289.667,168.833 290,168.5C 290.333,169.833 290.667,171.167 291,172.5C 292.78,171.361 294.614,170.361 296.5,169.5C 294.676,184.766 292.343,199.766 289.5,214.5C 289.612,205.54 288.279,196.873 285.5,188.5C 287.766,186.13 288.766,183.297 288.5,180C 287.326,175.007 286.492,169.84 286,164.5C 283.336,168.788 282.17,173.288 282.5,178C 279.576,188.63 278.743,199.464 280,210.5C 284.015,225.92 285.848,241.587 285.5,257.5C 284.56,246.573 283.06,235.573 281,224.5C 276.035,212.764 275.202,200.597 278.5,188C 277.223,183.393 276.223,178.726 275.5,174C 277.728,169.412 279.062,169.912 279.5,175.5C 280.768,173.696 281.435,171.696 281.5,169.5C 284.035,164.101 286.868,158.768 290,153.5C 291.242,145.797 294.742,139.464 300.5,134.5C 302.795,133.525 304.795,132.192 306.5,130.5 Z"/></g>
<g><path style="opacity:1" fill="#fbedfa" d="M 331.5,156.5 C 332.167,156.5 332.833,156.5 333.5,156.5C 335.013,158.516 335.847,160.849 336,163.5C 336.689,162.643 337.522,161.977 338.5,161.5C 339.768,163.304 340.435,165.304 340.5,167.5C 340.328,168.492 340.662,169.158 341.5,169.5C 341.876,175.217 342.543,180.884 343.5,186.5C 343.666,196.839 343.5,207.172 343,217.5C 338.412,211.466 335.579,204.799 334.5,197.5C 335.745,186.323 335.745,175.323 334.5,164.5C 333.564,160.872 331.898,160.539 329.5,163.5C 329.166,160.812 329.832,158.479 331.5,156.5 Z"/></g>
<g><path style="opacity:0.978" fill="#8f6ba3" d="M 391.5,176.5 C 393.29,181.383 394.29,186.55 394.5,192C 393.983,198.265 392.983,204.432 391.5,210.5C 390.305,204.034 389.638,197.368 389.5,190.5C 389.354,185.576 390.021,180.909 391.5,176.5 Z"/></g>
<g><path style="opacity:0.989" fill="#936aa6" d="M 277.5,160.5 C 276.225,165.527 275.225,170.694 274.5,176C 274.452,179.494 275.119,182.827 276.5,186C 273.875,197.971 274.209,209.804 277.5,221.5C 277.457,222.416 277.124,223.083 276.5,223.5C 273.666,213.331 271.666,202.997 270.5,192.5C 270.586,187.788 271.086,183.121 272,178.5C 272.926,172.105 274.759,166.105 277.5,160.5 Z"/></g>
<g><path style="opacity:1" fill="#b891c7" d="M 318.5,186.5 C 318.304,193.871 317.638,201.205 316.5,208.5C 317.023,212.489 317.356,216.489 317.5,220.5C 316.698,219.048 316.198,217.382 316,215.5C 314.61,223.451 313.61,231.451 313,239.5C 312.701,225.651 312.535,211.984 312.5,198.5C 313.215,193.805 315.215,189.805 318.5,186.5 Z"/></g>
<g><path style="opacity:1" fill="#cbb5d1" d="M 365.5,147.5 C 367.208,154.592 368.208,161.925 368.5,169.5C 372.627,191.501 375.961,213.501 378.5,235.5C 378.964,238.136 379.297,240.803 379.5,243.5C 378.768,256.155 378.268,268.821 378,281.5C 377.722,282.416 377.222,283.082 376.5,283.5C 377.115,268.569 376.115,253.903 373.5,239.5C 371.129,221.36 368.795,203.36 366.5,185.5C 365.651,172.853 365.318,160.187 365.5,147.5 Z"/></g>
<g><path style="opacity:1" fill="#b68fc7" d="M 346.5,185.5 C 351.567,191.833 353.9,199.166 353.5,207.5C 352.67,217.992 352.17,228.659 352,239.5C 351.179,231.472 350.179,223.472 349,215.5C 348.824,219.688 348.324,223.688 347.5,227.5C 347.412,220.647 347.746,213.814 348.5,207C 347.8,199.829 347.133,192.663 346.5,185.5 Z"/></g>
<g><path style="opacity:1" fill="#d0b9d6" d="M 298.5,151.5 C 299.833,162.833 299.833,174.167 298.5,185.5C 296.954,201.631 294.621,217.631 291.5,233.5C 291.631,232.761 291.464,232.094 291,231.5C 290,232.833 289,234.167 288,235.5C 287.45,228.389 287.95,221.389 289.5,214.5C 292.343,199.766 294.676,184.766 296.5,169.5C 296.844,163.322 297.511,157.322 298.5,151.5 Z"/></g>
<g><path style="opacity:1" fill="#f2daee" d="M 362.5,183.5 C 364.284,184.574 365.451,186.24 366,188.5C 366.483,187.552 366.649,186.552 366.5,185.5C 368.795,203.36 371.129,221.36 373.5,239.5C 373.665,242.85 373.498,246.183 373,249.5C 369.812,254.555 366.646,259.555 363.5,264.5C 363.653,258.155 363.986,251.822 364.5,245.5C 364.953,238.678 365.286,231.844 365.5,225C 363.967,211.234 362.967,197.401 362.5,183.5 Z"/></g>
<g><path style="opacity:1" fill="#927aa0" d="M 349.5,132.5 C 350.794,133.29 351.961,134.29 353,135.5C 354.513,139.188 356.013,142.855 357.5,146.5C 356.883,146.389 356.383,146.056 356,145.5C 357.4,156.32 359.233,166.987 361.5,177.5C 362.15,179.435 362.483,181.435 362.5,183.5C 362.967,197.401 363.967,211.234 365.5,225C 365.286,231.844 364.953,238.678 364.5,245.5C 363.133,248.466 362.133,251.633 361.5,255C 362.622,256.613 362.122,257.78 360,258.5C 359.392,256.846 358.892,255.179 358.5,253.5C 358.806,250.615 358.473,247.948 357.5,245.5C 357.5,224.167 357.5,202.833 357.5,181.5C 355.902,171.288 355.068,160.954 355,150.5C 354.059,148.273 352.892,146.273 351.5,144.5C 351.5,144.167 351.5,143.833 351.5,143.5C 351.619,139.653 350.953,135.986 349.5,132.5 Z"/></g>
<g><path style="opacity:1" fill="#f0d8ec" d="M 302.5,183.5 C 301.996,196.72 300.996,209.887 299.5,223C 300.229,235.834 300.896,248.667 301.5,261.5C 301.485,270.365 300.818,279.032 299.5,287.5C 299.253,281.459 299.586,275.459 300.5,269.5C 298.97,263.123 297.803,263.457 297,270.5C 295.989,271.337 294.822,271.67 293.5,271.5C 293.762,260.718 293.095,250.051 291.5,239.5C 291.5,237.5 291.5,235.5 291.5,233.5C 294.621,217.631 296.954,201.631 298.5,185.5C 298.351,186.552 298.517,187.552 299,188.5C 299.223,186.119 300.39,184.453 302.5,183.5 Z"/></g>
<g><path style="opacity:0.99" fill="#b087ba" d="M 279.5,143.5 C 280.833,143.833 282.167,144.167 283.5,144.5C 282.003,151.492 280.336,158.492 278.5,165.5C 279.8,165.904 280.8,167.237 281.5,169.5C 281.435,171.696 280.768,173.696 279.5,175.5C 279.062,169.912 277.728,169.412 275.5,174C 276.223,178.726 277.223,183.393 278.5,188C 275.202,200.597 276.035,212.764 281,224.5C 283.06,235.573 284.56,246.573 285.5,257.5C 285.5,265.167 285.5,272.833 285.5,280.5C 285.627,261.095 282.627,242.095 276.5,223.5C 277.124,223.083 277.457,222.416 277.5,221.5C 274.209,209.804 273.875,197.971 276.5,186C 275.119,182.827 274.452,179.494 274.5,176C 275.225,170.694 276.225,165.527 277.5,160.5C 279.515,156.62 280.848,152.453 281.5,148C 281.481,146.167 280.815,144.667 279.5,143.5 Z"/></g>
<g><path style="opacity:1" fill="#e6c5e4" d="M 341.5,239.5 C 338.619,258.12 335.953,276.787 333.5,295.5C 332.833,295.5 332.167,295.5 331.5,295.5C 330.486,284.783 329.153,274.117 327.5,263.5C 327.045,247.096 327.545,230.763 329,214.5C 329.333,217.5 329.667,220.5 330,223.5C 330.667,224.833 331.333,224.833 332,223.5C 333.161,228.416 333.827,233.416 334,238.5C 335.851,242.078 336.518,245.745 336,249.5C 337.15,246.232 337.984,242.899 338.5,239.5C 339.5,239.5 340.5,239.5 341.5,239.5 Z"/></g>
<g><path style="opacity:1" fill="#cdabdd" d="M 325.5,164.5 C 323.865,169.632 322.865,174.965 322.5,180.5C 321.35,182.609 320.016,184.609 318.5,186.5C 315.215,189.805 313.215,193.805 312.5,198.5C 310.403,215.763 309.07,233.096 308.5,250.5C 307.502,227.673 307.169,204.673 307.5,181.5C 310.755,176.656 313.755,171.656 316.5,166.5C 318.499,165.143 319.665,165.81 320,168.5C 321.356,167.62 322.856,167.286 324.5,167.5C 324.263,166.209 324.596,165.209 325.5,164.5 Z"/></g>
<g><path style="opacity:1" fill="#eacee9" d="M 343.5,186.5 C 345.128,204.108 344.461,221.775 341.5,239.5C 340.5,239.5 339.5,239.5 338.5,239.5C 337.984,242.899 337.15,246.232 336,249.5C 336.518,245.745 335.851,242.078 334,238.5C 333.827,233.416 333.161,228.416 332,223.5C 331.333,224.833 330.667,224.833 330,223.5C 329.667,220.5 329.333,217.5 329,214.5C 327.545,230.763 327.045,247.096 327.5,263.5C 322.983,242.335 320.983,221.002 321.5,199.5C 321.334,205.176 321.501,210.843 322,216.5C 324.399,213.88 326.066,210.88 327,207.5C 327.909,203.46 328.909,199.46 330,195.5C 330.284,202.243 331.117,208.91 332.5,215.5C 333.958,209.59 334.624,203.59 334.5,197.5C 335.579,204.799 338.412,211.466 343,217.5C 343.5,207.172 343.666,196.839 343.5,186.5 Z"/></g>
<g><path style="opacity:1" fill="#ceabdf" d="M 348.5,166.5 C 351.245,171.656 354.245,176.656 357.5,181.5C 357.5,202.833 357.5,224.167 357.5,245.5C 357.66,247.199 357.494,248.866 357,250.5C 356.968,236.061 355.802,221.728 353.5,207.5C 353.9,199.166 351.567,191.833 346.5,185.5C 345.442,184.4 344.608,183.066 344,181.5C 343.667,177.833 343.333,174.167 343,170.5C 342.617,169.944 342.117,169.611 341.5,169.5C 340.662,169.158 340.328,168.492 340.5,167.5C 342.144,167.286 343.644,167.62 345,168.5C 345.335,165.81 346.501,165.143 348.5,166.5 Z"/></g>
<g><path style="opacity:1" fill="#9472ad" d="M 312.5,198.5 C 312.535,211.984 312.701,225.651 313,239.5C 313.61,231.451 314.61,223.451 316,215.5C 316.198,217.382 316.698,219.048 317.5,220.5C 317.334,230.506 317.5,240.506 318,250.5C 318.098,256.64 318.932,262.64 320.5,268.5C 321.782,271.936 321.782,275.269 320.5,278.5C 316.55,265.706 313.05,252.706 310,239.5C 309.501,244.823 309.334,250.156 309.5,255.5C 308.549,254.081 308.216,252.415 308.5,250.5C 309.07,233.096 310.403,215.763 312.5,198.5 Z"/></g>
<g><path style="opacity:1" fill="#937aa1" d="M 315.5,135.5 C 315.5,137.167 315.5,138.833 315.5,140.5C 314.833,142.167 314.167,143.833 313.5,145.5C 311.419,149.541 310.086,153.874 309.5,158.5C 308.019,166.087 307.352,173.753 307.5,181.5C 307.169,204.673 307.502,227.673 308.5,250.5C 308.216,252.415 308.549,254.081 309.5,255.5C 309.5,255.833 309.5,256.167 309.5,256.5C 309.03,260.479 309.03,264.312 309.5,268C 309.354,270.76 308.687,273.26 307.5,275.5C 307.666,268.159 307.5,260.826 307,253.5C 305.275,256.674 303.942,260.007 303,263.5C 302.722,262.584 302.222,261.918 301.5,261.5C 300.896,248.667 300.229,235.834 299.5,223C 300.996,209.887 301.996,196.72 302.5,183.5C 303.327,179.193 303.993,174.86 304.5,170.5C 306.453,160.779 308.62,151.112 311,141.5C 311.792,138.894 313.292,136.894 315.5,135.5 Z"/></g>
<g><path style="opacity:1" fill="#9874ad" d="M 353.5,207.5 C 355.802,221.728 356.968,236.061 357,250.5C 357.494,248.866 357.66,247.199 357.5,245.5C 358.473,247.948 358.806,250.615 358.5,253.5C 357.507,261.65 357.174,269.983 357.5,278.5C 357.768,280.099 357.434,281.432 356.5,282.5C 355.132,284.156 353.799,286.49 352.5,289.5C 350.857,289.48 349.524,290.147 348.5,291.5C 347.637,289.229 347.637,286.895 348.5,284.5C 351.796,272.656 354.129,260.656 355.5,248.5C 355.333,245.5 355.167,242.5 355,239.5C 351.87,249.983 349.704,260.649 348.5,271.5C 347.5,271.5 346.5,271.5 345.5,271.5C 345.795,273.735 345.461,275.735 344.5,277.5C 344.5,274.5 344.5,271.5 344.5,268.5C 346.782,254.992 347.782,241.325 347.5,227.5C 348.324,223.688 348.824,219.688 349,215.5C 350.179,223.472 351.179,231.472 352,239.5C 352.17,228.659 352.67,217.992 353.5,207.5 Z"/></g>
<g><path style="opacity:1" fill="#835c9d" d="M 320.5,278.5 C 322.183,287.721 324.183,296.888 326.5,306C 326.472,307.07 326.139,307.903 325.5,308.5C 324.102,301.557 322.102,294.891 319.5,288.5C 319.5,287.5 319.5,286.5 319.5,285.5C 319.167,284.167 318.833,284.167 318.5,285.5C 318.631,286.239 318.464,286.906 318,287.5C 314.946,277.105 312.113,266.772 309.5,256.5C 309.5,256.167 309.5,255.833 309.5,255.5C 309.334,250.156 309.501,244.823 310,239.5C 313.05,252.706 316.55,265.706 320.5,278.5 Z"/></g>
<g><path style="opacity:1" fill="#bb98c4" d="M 341.5,169.5 C 342.117,169.611 342.617,169.944 343,170.5C 343.333,174.167 343.667,177.833 344,181.5C 344.608,183.066 345.442,184.4 346.5,185.5C 347.133,192.663 347.8,199.829 348.5,207C 347.746,213.814 347.412,220.647 347.5,227.5C 347.782,241.325 346.782,254.992 344.5,268.5C 343.679,265.359 343.179,262.025 343,258.5C 341.51,271.581 339.51,284.581 337,297.5C 336.667,297.167 336.333,296.833 336,296.5C 334.045,301.775 333.212,301.442 333.5,295.5C 335.953,276.787 338.619,258.12 341.5,239.5C 344.461,221.775 345.128,204.108 343.5,186.5C 342.543,180.884 341.876,175.217 341.5,169.5 Z"/></g>
<g><path style="opacity:1" fill="#e3ccd8" d="M 291.5,239.5 C 293.095,250.051 293.762,260.718 293.5,271.5C 294.822,271.67 295.989,271.337 297,270.5C 297.803,263.457 298.97,263.123 300.5,269.5C 299.586,275.459 299.253,281.459 299.5,287.5C 299.5,292.833 299.5,298.167 299.5,303.5C 298.058,306.172 296.391,308.838 294.5,311.5C 291.669,307.857 290.003,303.857 289.5,299.5C 289.5,298.167 289.5,296.833 289.5,295.5C 289.333,280.163 289.5,264.83 290,249.5C 290.179,245.975 290.679,242.641 291.5,239.5 Z"/></g>
<g><path style="opacity:1" fill="#7e5b9a" d="M 348.5,284.5 C 347.852,282.502 347.019,280.502 346,278.5C 345.434,280.723 344.6,282.723 343.5,284.5C 343.448,282.097 343.781,279.764 344.5,277.5C 345.461,275.735 345.795,273.735 345.5,271.5C 346.5,271.5 347.5,271.5 348.5,271.5C 349.704,260.649 351.87,249.983 355,239.5C 355.167,242.5 355.333,245.5 355.5,248.5C 354.129,260.656 351.796,272.656 348.5,284.5 Z"/></g>
<g><path style="opacity:1" fill="#e2c9d7" d="M 373.5,239.5 C 376.115,253.903 377.115,268.569 376.5,283.5C 375.893,292.487 375.56,301.487 375.5,310.5C 375.5,310.833 375.5,311.167 375.5,311.5C 373.808,315.243 372.474,319.243 371.5,323.5C 369.423,336.222 367.423,348.889 365.5,361.5C 365.5,361.833 365.5,362.167 365.5,362.5C 364.213,361.129 363.547,359.295 363.5,357C 362.694,348.852 362.361,340.686 362.5,332.5C 363.507,329.678 364.34,326.678 365,323.5C 365.74,303.799 365.24,284.132 363.5,264.5C 366.646,259.555 369.812,254.555 373,249.5C 373.498,246.183 373.665,242.85 373.5,239.5 Z"/></g>
<g><path style="opacity:1" fill="#ae98af" d="M 364.5,245.5 C 363.986,251.822 363.653,258.155 363.5,264.5C 365.24,284.132 365.74,303.799 365,323.5C 364.34,326.678 363.507,329.678 362.5,332.5C 362.666,326.158 362.5,319.825 362,313.5C 360.875,301.651 359.375,289.985 357.5,278.5C 357.174,269.983 357.507,261.65 358.5,253.5C 358.892,255.179 359.392,256.846 360,258.5C 362.122,257.78 362.622,256.613 361.5,255C 362.133,251.633 363.133,248.466 364.5,245.5 Z"/></g>
<g><path style="opacity:0.72" fill="#9f74ae" d="M 309.5,256.5 C 312.113,266.772 314.946,277.105 318,287.5C 318.464,286.906 318.631,286.239 318.5,285.5C 318.833,285.5 319.167,285.5 319.5,285.5C 319.5,286.5 319.5,287.5 319.5,288.5C 319.5,290.833 319.5,293.167 319.5,295.5C 317.097,295.607 315.264,294.607 314,292.5C 312.669,289.166 310.835,286.166 308.5,283.5C 307.534,285.396 307.201,287.396 307.5,289.5C 306.403,284.987 306.403,280.321 307.5,275.5C 308.687,273.26 309.354,270.76 309.5,268C 309.03,264.312 309.03,260.479 309.5,256.5 Z"/></g>
<g><path style="opacity:0.039" fill="#9e67b2" d="M 348.5,284.5 C 347.637,286.895 347.637,289.229 348.5,291.5C 349.524,290.147 350.857,289.48 352.5,289.5C 347.932,297.978 345.432,297.311 345,287.5C 343.378,293.041 341.544,298.374 339.5,303.5C 339.335,300.15 339.502,296.817 340,293.5C 341.722,290.721 342.889,287.721 343.5,284.5C 344.6,282.723 345.434,280.723 346,278.5C 347.019,280.502 347.852,282.502 348.5,284.5 Z"/></g>
<g><path style="opacity:1" fill="#b894bf" d="M 322.5,180.5 C 321.68,186.797 321.347,193.131 321.5,199.5C 320.983,221.002 322.983,242.335 327.5,263.5C 329.153,274.117 330.486,284.783 331.5,295.5C 331.22,300.313 331.886,304.98 333.5,309.5C 332.132,310.594 330.965,310.26 330,308.5C 326.925,292.904 324.259,277.237 322,261.5C 321.814,264.036 321.314,266.369 320.5,268.5C 318.932,262.64 318.098,256.64 318,250.5C 317.5,240.506 317.334,230.506 317.5,220.5C 317.356,216.489 317.023,212.489 316.5,208.5C 317.638,201.205 318.304,193.871 318.5,186.5C 320.016,184.609 321.35,182.609 322.5,180.5 Z"/></g>
<g><path style="opacity:1" fill="#b098b1" d="M 307.5,275.5 C 306.403,280.321 306.403,284.987 307.5,289.5C 306.89,290.391 306.557,291.391 306.5,292.5C 304.538,309.45 303.204,326.45 302.5,343.5C 300.202,330.291 299.202,316.957 299.5,303.5C 299.5,298.167 299.5,292.833 299.5,287.5C 300.818,279.032 301.485,270.365 301.5,261.5C 302.222,261.918 302.722,262.584 303,263.5C 303.942,260.007 305.275,256.674 307,253.5C 307.5,260.826 307.666,268.159 307.5,275.5 Z"/></g>
<g><path style="opacity:1" fill="#ab84b5" d="M 344.5,268.5 C 344.5,271.5 344.5,274.5 344.5,277.5C 343.781,279.764 343.448,282.097 343.5,284.5C 342.889,287.721 341.722,290.721 340,293.5C 339.502,296.817 339.335,300.15 339.5,303.5C 338.265,303.279 337.265,302.612 336.5,301.5C 335.137,308.796 333.97,316.129 333,323.5C 331.318,319.107 329.484,314.773 327.5,310.5C 327.043,309.702 326.376,309.369 325.5,309.5C 325.5,309.167 325.5,308.833 325.5,308.5C 326.139,307.903 326.472,307.07 326.5,306C 324.183,296.888 322.183,287.721 320.5,278.5C 321.782,275.269 321.782,271.936 320.5,268.5C 321.314,266.369 321.814,264.036 322,261.5C 324.259,277.237 326.925,292.904 330,308.5C 330.965,310.26 332.132,310.594 333.5,309.5C 331.886,304.98 331.22,300.313 331.5,295.5C 332.167,295.5 332.833,295.5 333.5,295.5C 333.212,301.442 334.045,301.775 336,296.5C 336.333,296.833 336.667,297.167 337,297.5C 339.51,284.581 341.51,271.581 343,258.5C 343.179,262.025 343.679,265.359 344.5,268.5 Z"/></g>
<g><path style="opacity:1" fill="#e0c5d5" d="M 289.5,299.5 C 290.003,303.857 291.669,307.857 294.5,311.5C 296.391,308.838 298.058,306.172 299.5,303.5C 299.202,316.957 300.202,330.291 302.5,343.5C 301.834,351.483 301.501,359.483 301.5,367.5C 300.042,363.54 298.708,359.54 297.5,355.5C 296.901,347.565 295.567,339.898 293.5,332.5C 292.383,328.705 291.717,324.705 291.5,320.5C 291.133,313.45 290.466,306.45 289.5,299.5 Z"/></g>
<g><path style="opacity:0.141" fill="#a572b2" d="M 357.5,286.5 C 358.813,297.344 359.98,308.344 361,319.5C 361.823,328.01 361.657,336.344 360.5,344.5C 359.344,325.178 358.344,305.844 357.5,286.5 Z"/></g>
<g><path style="opacity:0.714" fill="#b58cbe" d="M 285.5,283.5 C 287.452,287.312 288.785,291.312 289.5,295.5C 289.5,296.833 289.5,298.167 289.5,299.5C 290.466,306.45 291.133,313.45 291.5,320.5C 288.212,308.503 286.212,296.17 285.5,283.5 Z"/></g>
<g><path style="opacity:0.686" fill="#a272b0" d="M 339.5,303.5 C 338.164,311.181 336.664,318.847 335,326.5C 334.424,329.124 333.09,329.791 331,328.5C 329.936,321.907 328.103,315.574 325.5,309.5C 326.376,309.369 327.043,309.702 327.5,310.5C 329.484,314.773 331.318,319.107 333,323.5C 333.97,316.129 335.137,308.796 336.5,301.5C 337.265,302.612 338.265,303.279 339.5,303.5 Z"/></g>
<g><path style="opacity:0.843" fill="#ca95cc" d="M 375.5,311.5 C 373.226,328.498 369.893,345.164 365.5,361.5C 367.423,348.889 369.423,336.222 371.5,323.5C 372.474,319.243 373.808,315.243 375.5,311.5 Z"/></g>
<g><path style="opacity:0.839" fill="#b48db9" d="M 357.5,278.5 C 359.375,289.985 360.875,301.651 362,313.5C 362.5,319.825 362.666,326.158 362.5,332.5C 362.361,340.686 362.694,348.852 363.5,357C 363.547,359.295 364.213,361.129 365.5,362.5C 365.799,364.604 365.466,366.604 364.5,368.5C 363.914,368.291 363.414,367.957 363,367.5C 362.196,359.815 361.362,352.148 360.5,344.5C 361.657,336.344 361.823,328.01 361,319.5C 359.98,308.344 358.813,297.344 357.5,286.5C 357.567,285.041 357.234,283.708 356.5,282.5C 357.434,281.432 357.768,280.099 357.5,278.5 Z"/></g>
<g><path style="opacity:0.027" fill="#a875b2" d="M 306.5,292.5 C 306.666,301.506 306.5,310.506 306,319.5C 305.109,335.707 303.609,351.707 301.5,367.5C 301.501,359.483 301.834,351.483 302.5,343.5C 303.204,326.45 304.538,309.45 306.5,292.5 Z"/></g>
<g><path style="opacity:0.047" fill="#a473b1" d="M 293.5,332.5 C 295.567,339.898 296.901,347.565 297.5,355.5C 295.214,348.125 293.881,340.459 293.5,332.5 Z"/></g>
<g><path style="opacity:0.106" fill="#a673ae" d="M 297.5,355.5 C 298.708,359.54 300.042,363.54 301.5,367.5C 300.698,368.885 300.031,368.718 299.5,367C 298.381,363.239 297.714,359.406 297.5,355.5 Z"/></g>
</svg>
