<svg width="16" height="17" viewBox="0 0 16 17" fill="none" xmlns="http://www.w3.org/2000/svg">
<path d="M7.3 15.8C7.11667 15.6167 7.02083 15.3833 7.0125 15.1C7.00417 14.8167 7.09167 14.5833 7.275 14.4L12.175 9.5H1C0.716667 9.5 0.479167 9.40417 0.2875 9.2125C0.0958333 9.02083 0 8.78333 0 8.5C0 8.21667 0.0958333 7.97917 0.2875 7.7875C0.479167 7.59583 0.716667 7.5 1 7.5H12.175L7.275 2.6C7.09167 2.41667 7.00417 2.18333 7.0125 1.9C7.02083 1.61667 7.11667 1.38333 7.3 1.2C7.48333 1.01667 7.71667 0.924999 8 0.924999C8.28333 0.924999 8.51667 1.01667 8.7 1.2L15.3 7.8C15.4 7.88333 15.4708 7.9875 15.5125 8.1125C15.5542 8.2375 15.575 8.36667 15.575 8.5C15.575 8.63333 15.5542 8.75833 15.5125 8.875C15.4708 8.99167 15.4 9.1 15.3 9.2L8.7 15.8C8.51667 15.9833 8.28333 16.075 8 16.075C7.71667 16.075 7.48333 15.9833 7.3 15.8Z" fill="#101010"/>
</svg>
