<svg width="100" height="37" viewBox="0 0 100 37" fill="none" xmlns="http://www.w3.org/2000/svg">
<path d="M15.0595 2.33562L2.38825 14.7327C-0.796083 17.8479 -0.796083 22.8975 2.38825 26.0127L6.85683 30.3842L7.78727 31.2944L11.966 27.2065L7.43758 22.7764C6.08009 21.4484 6.08009 19.297 7.43758 17.9689L18.3677 7.27628C19.7252 5.94827 21.9244 5.94827 23.2819 7.27628L37.8213 21.4999L42 17.4119L26.59 2.33562C23.4067 -0.778538 18.2439 -0.778538 15.0595 2.33562Z" fill="#FF4A18"/>
<path d="M17.7988 21.5008L23.6311 27.2064L17.7988 32.912L21.9775 37L31.9896 27.2064L21.9775 17.4119L17.7988 21.5008Z" fill="#FF4A18"/>
<path d="M82.113 7.22833H75.6201C73.802 7.22833 72.3232 8.67945 72.3232 10.4636V16.9482H75.3044V10.7804C75.3044 10.2032 75.7826 9.73399 76.3708 9.73399H77.7457V16.9492H80.7525V9.73399H81.9125C82.3331 9.73399 82.6467 9.77435 82.8431 9.85407C83.2123 10.0034 83.2904 10.6533 83.2904 11.173V16.9502H86.2623V10.8561C86.2623 10.0044 86.1173 9.30712 85.8325 8.7844C85.2731 7.75106 84.0216 7.22833 82.113 7.22833Z" fill="white"/>
<path d="M87.4648 12.0973C87.4648 15.3164 89.1369 16.9492 92.4348 16.9492H96.7435V14.5465H92.7536C91.4939 14.5465 91.0537 14.278 90.9067 14.054C90.7853 13.8683 90.7134 13.615 90.6897 13.2982H96.7435V10.8955H90.6918C90.7175 10.6018 90.7925 10.3566 90.917 10.1638C91.1401 9.81469 91.7818 9.63002 92.7711 9.63002H96.7435V7.22729H92.4358C89.1369 7.2283 87.4648 8.86611 87.4648 12.0973Z" fill="white"/>
<path d="M47.2988 7.11327V13.7129C47.2988 15.4971 48.7776 16.9482 50.5957 16.9482H53.6992V14.3063H51.0584C50.4702 14.3063 49.991 13.8371 49.991 13.2598V7.56737C49.991 6.99015 50.4702 6.52091 51.0584 6.52091H59.0126V3.87903H50.5957C48.7776 3.87802 47.2988 5.32914 47.2988 7.11327Z" fill="white"/>
<path d="M53.2246 11.734H56.3199V16.9492H59.0131V9.09216H53.2246V11.734Z" fill="white"/>
<path d="M67.3182 7.22833H64.3134C62.4953 7.22833 61.0166 8.67945 61.0166 10.4636V13.713C61.0166 15.4971 62.4953 16.9482 64.3134 16.9482H66.6118V14.3063H64.7762C64.188 14.3063 63.7098 13.8371 63.7098 13.2599V10.9177C63.7098 10.3405 64.188 9.87123 64.7762 9.87123H66.8555C67.4437 9.87123 67.9219 10.3405 67.9219 10.9177V13.2356V16.9482H70.6151V10.4636C70.6151 8.67945 69.1353 7.22833 67.3182 7.22833Z" fill="white"/>
<path d="M65.1666 23.9878C63.5779 23.9878 62.2966 24.449 61.3587 25.3572C60.4024 26.2835 59.917 27.5127 59.917 29.0102C59.917 30.532 60.4116 31.7681 61.3875 32.6834C62.3367 33.5735 63.6087 34.0245 65.1666 34.0245C66.7369 34.0245 68.0131 33.5714 68.9592 32.6784C69.9083 31.7823 70.3906 30.5481 70.3906 29.0102C70.3906 27.4723 69.9093 26.2361 68.9602 25.338C68.0131 24.4429 66.7369 23.9878 65.1666 23.9878ZM63.003 29.0072C63.003 28.2493 63.1748 27.6378 63.5162 27.1887C63.8915 26.6872 64.4252 26.443 65.1492 26.443C65.8855 26.443 66.4253 26.6842 66.8007 27.1817C67.1349 27.6247 67.3035 28.2392 67.3035 29.0082C67.3035 29.5662 67.2141 30.0425 67.0372 30.421C66.6742 31.196 66.0572 31.5724 65.1481 31.5724C64.4129 31.5724 63.8751 31.3312 63.5049 30.8347C63.1727 30.3907 63.003 29.7761 63.003 29.0072Z" fill="white"/>
<path d="M76.0553 23.9878C74.4665 23.9878 73.1852 24.449 72.2474 25.3572C71.291 26.2835 70.8057 27.5127 70.8057 29.0102C70.8057 30.532 71.3003 31.7681 72.2762 32.6834C73.2253 33.5735 74.4974 34.0245 76.0553 34.0245C77.6256 34.0245 78.9007 33.5714 79.8478 32.6784C80.797 31.7823 81.2793 30.5481 81.2793 29.0102C81.2793 27.4723 80.798 26.2361 79.8488 25.338C78.9017 24.4429 77.6256 23.9878 76.0553 23.9878ZM78.1932 29.0072C78.1932 29.5652 78.1038 30.0415 77.9269 30.4199C77.5639 31.1949 76.9459 31.5714 76.0378 31.5714C75.3026 31.5714 74.7648 31.3302 74.3946 30.8337C74.0603 30.3907 73.8907 29.7761 73.8907 29.0072C73.8907 28.2493 74.0624 27.6378 74.4038 27.1887C74.7792 26.6862 75.3129 26.443 76.0368 26.443C76.7731 26.443 77.313 26.6842 77.6883 27.1817C78.0235 27.6237 78.1932 28.2382 78.1932 29.0072Z" fill="white"/>
<path d="M88.2452 27.7418H85.9921C85.0501 27.7418 85.0501 27.329 85.0501 27.1524C85.0501 26.9718 85.0913 26.8396 85.1725 26.7599C85.2383 26.6953 85.5026 26.5449 86.533 26.5449H91.1718V24.1422H85.5818C83.2505 24.1422 82.0176 25.224 82.0176 27.2715C82.0176 28.0294 82.1369 28.5995 82.3806 29.0143C82.8135 29.762 83.8388 30.1263 85.5119 30.1263H87.6601C88.7583 30.1263 88.7583 30.5996 88.7583 30.8014C88.7583 30.981 88.7583 31.4594 87.6601 31.4594H82.1831V33.8621H88.8385C89.7198 33.8621 90.4283 33.5382 90.9446 32.9014C91.4145 32.3302 91.6521 31.6006 91.6521 30.7328C91.6521 28.7761 90.4746 27.7418 88.2452 27.7418Z" fill="white"/>
<path d="M97.001 31.1758C96.8303 30.9498 96.7429 30.5411 96.7429 29.9618V20.7919H93.7803V24.1422H92.0342V26.4501H93.7803V30.7328C93.7803 31.7036 94.0477 32.4756 94.5731 33.0255C95.1038 33.5805 95.874 33.8621 96.8632 33.8621H99.3714V31.5542H98.1127C97.5707 31.5542 97.1964 31.4271 97.001 31.1758Z" fill="white"/>
<path d="M57.4671 27.3139C58.5571 26.6297 59.1083 25.6196 59.1083 24.3067C59.1083 23.0271 58.5838 22.0533 57.5483 21.4105C56.8799 20.9938 55.7641 20.7919 54.1373 20.7919H47.2979V23.5196H51.2806H54.1898C55.5585 23.5196 55.7158 24.2179 55.7158 24.7437C55.7158 25.2694 55.5574 25.9677 54.1898 25.9677H50.4713V24.8062H47.2979V33.8631H54.6001C57.6141 33.8631 59.1422 32.6259 59.1422 30.1859C59.1433 28.878 58.5797 27.9143 57.4671 27.3139ZM54.2247 31.1687H50.4713V28.6691H54.2247C55.6006 28.6691 55.76 29.3876 55.76 29.9275C55.76 30.4603 55.6017 31.1687 54.2247 31.1687Z" fill="white"/>
<path d="M99.372 24.1422H98.0537V26.4501H99.372V24.1422Z" fill="white"/>
</svg>
